<?xml version="1.0" encoding="iso-8859-1"?>
<!-- Generator: Adobe Illustrator 19.0.0, SVG Export Plug-In . SVG Version: 6.00 Build 0)  -->
<svg version="1.1" id="Layer_1" xmlns="http://www.w3.org/2000/svg" xmlns:xlink="http://www.w3.org/1999/xlink" x="0px" y="0px"
	 viewBox="0 0 512 512" style="enable-background:new 0 0 512 512;" xml:space="preserve">
<circle style="fill:#FFC61B;" cx="256" cy="256" r="256"/>
<path style="fill:#EAA22F;" d="M511.95,259.972l-63.21-62.388l-157.974,4.73v50.814l-56.929-55.696l-12.378,13.686l-15.739-15.741
	H72.401L61.774,312.889L260.823,511.94C398.658,509.39,509.849,397.915,511.95,259.972z"/>
<path style="fill:#59595B;" d="M426.975,188.521h-127.2c-16.941,0-30.722,13.781-30.722,30.722v22.966h-26.105v-22.964
	c0-16.941-13.781-30.722-30.722-30.722H85.025c-16.941,0-30.722,13.781-30.722,30.722v73.513c0,16.941,13.781,30.722,30.722,30.722
	h127.2c16.941,0,30.722-13.781,30.722-30.722v-22.966h26.105v22.964c0,16.941,13.781,30.722,30.722,30.722h127.2
	c16.941,0,30.722-13.781,30.722-30.722v-73.513C457.697,202.304,443.916,188.521,426.975,188.521z M215.366,292.755
	c0,1.731-1.408,3.139-3.139,3.139H85.025c-1.731,0-3.139-1.408-3.139-3.139v-73.513c0-1.731,1.408-3.139,3.139-3.139h127.2
	c1.731,0,3.139,1.408,3.139,3.139v22.966h-50.731c-7.616,0-13.791,6.175-13.791,13.791c0,7.616,6.175,13.791,13.791,13.791h50.733
	V292.755z M430.114,292.755c0,1.731-1.408,3.139-3.139,3.139h-127.2c-1.731,0-3.139-1.408-3.139-3.139v-22.964h50.731
	c7.616,0,13.791-6.175,13.791-13.791c0-7.616-6.175-13.791-13.791-13.791h-50.733v-22.964c0-1.731,1.408-3.139,3.139-3.139h127.2
	c1.731,0,3.139,1.408,3.139,3.139v73.511H430.114z"/>
<path style="fill:#272525;" d="M426.975,188.521h-127.2c-16.941,0-30.722,13.781-30.722,30.722v22.966H256v27.582h13.052v22.964
	c0,16.941,13.781,30.722,30.722,30.722h127.2c16.941,0,30.722-13.781,30.722-30.722v-73.513
	C457.697,202.304,443.916,188.521,426.975,188.521z M430.114,292.755c0,1.731-1.408,3.139-3.139,3.139h-127.2
	c-1.731,0-3.139-1.408-3.139-3.139v-22.964h50.731c7.616,0,13.791-6.175,13.791-13.791c0-7.616-6.175-13.791-13.791-13.791h-50.733
	v-22.964c0-1.731,1.408-3.139,3.139-3.139h127.2c1.731,0,3.139,1.408,3.139,3.139v73.511H430.114z"/>
<g>
</g>
<g>
</g>
<g>
</g>
<g>
</g>
<g>
</g>
<g>
</g>
<g>
</g>
<g>
</g>
<g>
</g>
<g>
</g>
<g>
</g>
<g>
</g>
<g>
</g>
<g>
</g>
<g>
</g>
</svg>
