<?xml version="1.0" encoding="iso-8859-1"?>
<!-- Generator: Adobe Illustrator 19.0.0, SVG Export Plug-In . SVG Version: 6.00 Build 0)  -->
<svg version="1.1" id="Layer_1" xmlns="http://www.w3.org/2000/svg" xmlns:xlink="http://www.w3.org/1999/xlink" x="0px" y="0px"
	 viewBox="0 0 512.003 512.003" style="enable-background:new 0 0 512.003 512.003;" xml:space="preserve">
<path style="fill:#FFFFFF;" d="M2.168,141.111v199.936c0,19.182,15.542,34.726,34.726,34.726h307.886
	c18.15,0,32.845,14.723,32.845,32.855V173.966c0-8.415-3.208-16.822-9.626-23.217c-6.403-6.428-14.81-9.636-23.219-9.636H2.168
	V141.111z"/>
<g>
	<path style="fill:#92DEEB;" d="M344.781,375.773v65.705c18.145,0,32.845-14.707,32.845-32.85
		C377.626,390.48,362.926,375.773,344.781,375.773z"/>
	<path style="fill:#92DEEB;" d="M36.897,106.379c19.177,0,34.734,15.552,34.734,34.732v199.936
		c0-19.185-15.557-34.734-34.734-34.734c-19.18,0-34.726,15.549-34.726,34.734V141.111C2.168,121.929,17.718,106.379,36.897,106.379
		z"/>
</g>
<g>
	<path style="fill:#232E38;" d="M377.626,410.773c-1.193,0-2.161-0.968-2.161-2.158c0-16.914-13.757-30.674-30.674-30.674H36.905
		C16.556,377.941,0,361.386,0,341.037V141.111c0-1.19,0.968-2.156,2.158-2.156s2.158,0.965,2.158,2.156v199.926
		c0,17.971,14.62,32.586,32.589,32.586h307.886c13.202,0,24.719,7.35,30.674,18.171v-217.82c0-8.23-3.185-15.936-8.975-21.693
		c-5.811-5.814-13.514-9.011-21.701-9.011H71.624c-1.19,0-2.158-0.965-2.158-2.156s0.968-2.156,2.158-2.156h273.167
		c9.334,0,18.127,3.645,24.75,10.268c6.605,6.574,10.243,15.363,10.243,24.75v234.644
		C379.784,409.806,378.816,410.773,377.626,410.773z"/>
	<path style="fill:#232E38;" d="M344.781,443.639c-1.193,0-2.158-0.968-2.158-2.161v-65.705c0-1.193,0.965-2.161,2.158-2.161
		c19.3,0,35.003,15.711,35.003,35.016S364.081,443.639,344.781,443.639z M346.936,378.005v61.24
		c15.921-1.111,28.529-14.418,28.529-30.618C375.465,392.426,362.857,379.117,346.936,378.005z"/>
	<path style="fill:#232E38;" d="M71.629,343.202c-1.19,0-2.158-0.968-2.158-2.158c0-17.964-14.612-32.579-32.576-32.579
		c-17.958,0-32.571,14.615-32.571,32.579c0,1.19-0.965,2.158-2.158,2.158s-2.158-0.968-2.158-2.158V141.108
		c0-20.342,16.548-36.892,36.887-36.892c20.342,0,36.892,16.548,36.892,36.892v199.936
		C73.789,342.237,72.822,343.202,71.629,343.202z M36.897,304.155c14.093,0,26.365,7.944,32.576,19.589V141.111
		c0-17.964-14.612-32.573-32.576-32.573c-17.958,0-32.571,14.61-32.571,32.573v182.63C10.534,312.096,22.804,304.155,36.897,304.155
		z"/>
	<path style="fill:#232E38;" d="M36.905,366.514c-1.19,0-2.158,0.968-2.158,2.158v7.112c0,1.193,0.968,2.158,2.158,2.158
		s2.158-0.965,2.158-2.158v-7.112C39.063,367.481,38.095,366.514,36.905,366.514z"/>
	<path style="fill:#232E38;" d="M48.745,366.514c-1.19,0-2.158,0.968-2.158,2.158v7.112c0,1.193,0.965,2.158,2.158,2.158
		s2.158-0.965,2.158-2.158v-7.112C50.903,367.481,49.935,366.514,48.745,366.514z"/>
	<path style="fill:#232E38;" d="M60.588,366.514c-1.19,0-2.158,0.968-2.158,2.158v7.112c0,1.193,0.968,2.158,2.158,2.158
		c1.19,0,2.158-0.965,2.158-2.158v-7.112C62.746,367.481,61.778,366.514,60.588,366.514z"/>
	<path style="fill:#232E38;" d="M72.428,366.509c-1.19,0-2.158,0.968-2.158,2.161v7.114c0,1.193,0.965,2.158,2.158,2.158
		c1.193,0,2.158-0.965,2.158-2.158v-7.114C74.586,367.476,73.62,366.509,72.428,366.509z"/>
	<path style="fill:#232E38;" d="M84.27,366.514c-1.19,0-2.158,0.968-2.158,2.158v7.112c0,1.193,0.968,2.158,2.158,2.158
		c1.19,0,2.158-0.965,2.158-2.158v-7.112C86.428,367.481,85.46,366.514,84.27,366.514z"/>
	<path style="fill:#232E38;" d="M96.11,366.514c-1.19,0-2.158,0.968-2.158,2.158v7.112c0,1.193,0.965,2.158,2.158,2.158
		c1.193,0,2.158-0.965,2.158-2.158v-7.112C98.268,367.481,97.303,366.514,96.11,366.514z"/>
	<path style="fill:#232E38;" d="M107.953,366.514c-1.19,0-2.158,0.968-2.158,2.158v7.112c0,1.193,0.968,2.158,2.158,2.158
		s2.158-0.965,2.158-2.158v-7.112C110.111,367.481,109.143,366.514,107.953,366.514z"/>
	<path style="fill:#232E38;" d="M119.793,366.509c-1.19,0-2.158,0.968-2.158,2.161v7.114c0,1.193,0.965,2.158,2.158,2.158
		c1.193,0,2.158-0.965,2.158-2.158v-7.114C121.951,367.476,120.986,366.509,119.793,366.509z"/>
	<path style="fill:#232E38;" d="M131.635,366.514c-1.19,0-2.158,0.968-2.158,2.158v7.112c0,1.193,0.968,2.158,2.158,2.158
		s2.158-0.965,2.158-2.158v-7.112C133.793,367.481,132.826,366.514,131.635,366.514z"/>
	<path style="fill:#232E38;" d="M143.475,366.514c-1.19,0-2.158,0.968-2.158,2.158v7.112c0,1.193,0.965,2.158,2.158,2.158
		s2.158-0.965,2.158-2.158v-7.112C145.633,367.481,144.668,366.514,143.475,366.514z"/>
	<path style="fill:#232E38;" d="M155.318,366.514c-1.19,0-2.158,0.968-2.158,2.158v7.112c0,1.193,0.968,2.158,2.158,2.158
		s2.158-0.965,2.158-2.158v-7.112C157.476,367.481,156.508,366.514,155.318,366.514z"/>
	<path style="fill:#232E38;" d="M167.158,366.514c-1.19,0-2.158,0.968-2.158,2.158v7.112c0,1.193,0.965,2.158,2.158,2.158
		c1.193,0,2.158-0.965,2.158-2.158v-7.112C169.316,367.481,168.351,366.514,167.158,366.514z"/>
	<path style="fill:#232E38;" d="M179,366.514c-1.19,0-2.158,0.968-2.158,2.158v7.112c0,1.193,0.968,2.158,2.158,2.158
		c1.19,0,2.158-0.965,2.158-2.158v-7.112C181.158,367.481,180.191,366.514,179,366.514z"/>
	<path style="fill:#232E38;" d="M190.843,366.514c-1.19,0-2.158,0.968-2.158,2.158v7.112c0,1.193,0.965,2.158,2.158,2.158
		c1.193,0,2.158-0.965,2.158-2.158v-7.112C193.001,367.481,192.033,366.514,190.843,366.514z"/>
	<path style="fill:#232E38;" d="M202.683,366.514c-1.188,0-2.156,0.968-2.156,2.158v7.112c0,1.193,0.968,2.158,2.156,2.158
		c1.193,0,2.161-0.965,2.161-2.158v-7.112C204.844,367.481,203.876,366.514,202.683,366.514z"/>
	<path style="fill:#232E38;" d="M214.523,366.514c-1.19,0-2.156,0.968-2.156,2.158v7.112c0,1.193,0.965,2.158,2.156,2.158
		c1.193,0,2.158-0.965,2.158-2.158v-7.112C216.681,367.481,215.716,366.514,214.523,366.514z"/>
	<path style="fill:#232E38;" d="M226.365,366.514c-1.19,0-2.158,0.968-2.158,2.158v7.112c0,1.193,0.968,2.158,2.158,2.158
		c1.19,0,2.158-0.965,2.158-2.158v-7.112C228.524,367.481,227.556,366.514,226.365,366.514z"/>
	<path style="fill:#232E38;" d="M238.205,366.514c-1.19,0-2.156,0.968-2.156,2.158v7.112c0,1.193,0.965,2.158,2.156,2.158
		s2.156-0.965,2.156-2.158v-7.112C240.364,367.481,239.396,366.514,238.205,366.514z"/>
	<path style="fill:#232E38;" d="M250.048,366.514c-1.19,0-2.158,0.968-2.158,2.158v7.112c0,1.193,0.968,2.158,2.158,2.158
		c1.193,0,2.161-0.965,2.161-2.158v-7.112C252.209,367.481,251.241,366.514,250.048,366.514z"/>
	<path style="fill:#232E38;" d="M261.891,366.514c-1.19,0-2.158,0.968-2.158,2.158v7.112c0,1.193,0.968,2.158,2.158,2.158
		s2.158-0.965,2.158-2.158v-7.112C264.049,367.481,263.081,366.514,261.891,366.514z"/>
	<path style="fill:#232E38;" d="M273.731,366.514c-1.19,0-2.158,0.968-2.158,2.158v7.112c0,1.193,0.968,2.158,2.158,2.158
		c1.193,0,2.158-0.965,2.158-2.158v-7.112C275.889,367.481,274.924,366.514,273.731,366.514z"/>
	<path style="fill:#232E38;" d="M285.573,366.514c-1.19,0-2.158,0.968-2.158,2.158v7.112c0,1.193,0.968,2.158,2.158,2.158
		s2.158-0.965,2.158-2.158v-7.112C287.731,367.481,286.764,366.514,285.573,366.514z"/>
	<path style="fill:#232E38;" d="M297.413,366.514c-1.19,0-2.156,0.968-2.156,2.158v7.112c0,1.193,0.965,2.158,2.156,2.158
		c1.193,0,2.161-0.965,2.161-2.158v-7.112C299.574,367.481,298.606,366.514,297.413,366.514z"/>
	<path style="fill:#232E38;" d="M309.256,366.514c-1.193,0-2.161,0.968-2.161,2.158v7.112c0,1.193,0.968,2.158,2.161,2.158
		s2.161-0.965,2.161-2.158v-7.112C311.414,367.481,310.449,366.514,309.256,366.514z"/>
	<path style="fill:#232E38;" d="M321.098,366.514c-1.19,0-2.158,0.968-2.158,2.158v7.112c0,1.193,0.968,2.158,2.158,2.158
		s2.156-0.965,2.156-2.158v-7.112C323.254,367.481,322.289,366.514,321.098,366.514z"/>
	<path style="fill:#232E38;" d="M332.938,366.514c-1.193,0-2.158,0.968-2.158,2.158v7.112c0,1.193,0.965,2.158,2.158,2.158
		s2.161-0.965,2.161-2.158v-7.112C335.096,367.481,334.131,366.514,332.938,366.514z"/>
	<path style="fill:#232E38;" d="M344.781,366.514c-1.193,0-2.158,0.968-2.158,2.158v7.112c0,1.193,0.965,2.158,2.158,2.158
		c1.19,0,2.158-0.965,2.158-2.158v-7.112C346.936,367.481,345.971,366.514,344.781,366.514z"/>
	<path style="fill:#232E38;" d="M84.27,138.955c-1.19,0-2.158,0.965-2.158,2.156v7.112c0,1.193,0.968,2.158,2.158,2.158
		c1.19,0,2.158-0.965,2.158-2.158v-7.112C86.428,139.92,85.46,138.955,84.27,138.955z"/>
	<path style="fill:#232E38;" d="M96.11,138.955c-1.19,0-2.158,0.965-2.158,2.156v7.112c0,1.193,0.965,2.158,2.158,2.158
		c1.193,0,2.158-0.965,2.158-2.158v-7.112C98.268,139.92,97.303,138.955,96.11,138.955z"/>
	<path style="fill:#232E38;" d="M107.953,138.955c-1.19,0-2.158,0.965-2.158,2.156v7.112c0,1.193,0.968,2.158,2.158,2.158
		s2.158-0.965,2.158-2.158v-7.112C110.111,139.92,109.143,138.955,107.953,138.955z"/>
	<path style="fill:#232E38;" d="M119.793,138.95c-1.19,0-2.158,0.965-2.158,2.158v7.114c0,1.193,0.965,2.158,2.158,2.158
		c1.193,0,2.158-0.965,2.158-2.158v-7.114C121.951,139.915,120.986,138.95,119.793,138.95z"/>
	<path style="fill:#232E38;" d="M131.635,138.955c-1.19,0-2.158,0.965-2.158,2.156v7.112c0,1.193,0.968,2.158,2.158,2.158
		s2.158-0.965,2.158-2.158v-7.112C133.793,139.92,132.826,138.955,131.635,138.955z"/>
	<path style="fill:#232E38;" d="M143.475,138.955c-1.19,0-2.158,0.965-2.158,2.156v7.112c0,1.193,0.965,2.158,2.158,2.158
		s2.158-0.965,2.158-2.158v-7.112C145.633,139.92,144.668,138.955,143.475,138.955z"/>
	<path style="fill:#232E38;" d="M155.318,138.955c-1.19,0-2.158,0.965-2.158,2.156v7.112c0,1.193,0.968,2.158,2.158,2.158
		s2.158-0.965,2.158-2.158v-7.112C157.476,139.92,156.508,138.955,155.318,138.955z"/>
	<path style="fill:#232E38;" d="M167.158,138.955c-1.19,0-2.158,0.965-2.158,2.156v7.112c0,1.193,0.965,2.158,2.158,2.158
		c1.193,0,2.158-0.965,2.158-2.158v-7.112C169.316,139.92,168.351,138.955,167.158,138.955z"/>
	<path style="fill:#232E38;" d="M179,138.955c-1.19,0-2.158,0.965-2.158,2.156v7.112c0,1.193,0.968,2.158,2.158,2.158
		c1.19,0,2.158-0.965,2.158-2.158v-7.112C181.158,139.92,180.191,138.955,179,138.955z"/>
	<path style="fill:#232E38;" d="M190.843,138.955c-1.19,0-2.158,0.965-2.158,2.156v7.112c0,1.193,0.965,2.158,2.158,2.158
		c1.193,0,2.158-0.965,2.158-2.158v-7.112C193.001,139.92,192.033,138.955,190.843,138.955z"/>
	<path style="fill:#232E38;" d="M202.683,138.955c-1.188,0-2.156,0.965-2.156,2.156v7.112c0,1.193,0.968,2.158,2.156,2.158
		c1.193,0,2.161-0.965,2.161-2.158v-7.112C204.844,139.92,203.876,138.955,202.683,138.955z"/>
	<path style="fill:#232E38;" d="M214.523,138.955c-1.19,0-2.156,0.965-2.156,2.156v7.112c0,1.193,0.965,2.158,2.156,2.158
		c1.193,0,2.158-0.965,2.158-2.158v-7.112C216.681,139.92,215.716,138.955,214.523,138.955z"/>
	<path style="fill:#232E38;" d="M226.365,138.955c-1.19,0-2.158,0.965-2.158,2.156v7.112c0,1.193,0.968,2.158,2.158,2.158
		c1.19,0,2.158-0.965,2.158-2.158v-7.112C228.524,139.92,227.556,138.955,226.365,138.955z"/>
	<path style="fill:#232E38;" d="M238.205,138.955c-1.19,0-2.156,0.965-2.156,2.156v7.112c0,1.193,0.965,2.158,2.156,2.158
		s2.156-0.965,2.156-2.158v-7.112C240.364,139.92,239.396,138.955,238.205,138.955z"/>
	<path style="fill:#232E38;" d="M250.048,138.955c-1.19,0-2.158,0.965-2.158,2.156v7.112c0,1.193,0.968,2.158,2.158,2.158
		c1.193,0,2.161-0.965,2.161-2.158v-7.112C252.209,139.92,251.241,138.955,250.048,138.955z"/>
	<path style="fill:#232E38;" d="M261.891,138.955c-1.19,0-2.158,0.965-2.158,2.156v7.112c0,1.193,0.968,2.158,2.158,2.158
		s2.158-0.965,2.158-2.158v-7.112C264.049,139.92,263.081,138.955,261.891,138.955z"/>
	<path style="fill:#232E38;" d="M273.731,138.955c-1.19,0-2.158,0.965-2.158,2.156v7.112c0,1.193,0.968,2.158,2.158,2.158
		c1.193,0,2.158-0.965,2.158-2.158v-7.112C275.889,139.92,274.924,138.955,273.731,138.955z"/>
	<path style="fill:#232E38;" d="M285.573,138.955c-1.19,0-2.158,0.965-2.158,2.156v7.112c0,1.193,0.968,2.158,2.158,2.158
		s2.158-0.965,2.158-2.158v-7.112C287.731,139.92,286.764,138.955,285.573,138.955z"/>
	<path style="fill:#232E38;" d="M297.413,138.955c-1.19,0-2.156,0.965-2.156,2.156v7.112c0,1.193,0.965,2.158,2.156,2.158
		c1.193,0,2.161-0.965,2.161-2.158v-7.112C299.574,139.92,298.606,138.955,297.413,138.955z"/>
	<path style="fill:#232E38;" d="M309.256,138.955c-1.193,0-2.161,0.965-2.161,2.156v7.112c0,1.193,0.968,2.158,2.161,2.158
		s2.161-0.965,2.161-2.158v-7.112C311.414,139.92,310.449,138.955,309.256,138.955z"/>
	<path style="fill:#232E38;" d="M321.098,138.955c-1.19,0-2.158,0.965-2.158,2.156v7.112c0,1.193,0.968,2.158,2.158,2.158
		s2.156-0.965,2.156-2.158v-7.112C323.254,139.92,322.289,138.955,321.098,138.955z"/>
	<path style="fill:#232E38;" d="M332.938,138.955c-1.193,0-2.158,0.965-2.158,2.156v7.112c0,1.193,0.965,2.158,2.158,2.158
		s2.161-0.965,2.161-2.158v-7.112C335.096,139.92,334.131,138.955,332.938,138.955z"/>
	<path style="fill:#232E38;" d="M344.781,138.955c-1.193,0-2.158,0.965-2.158,2.156v7.112c0,1.193,0.965,2.158,2.158,2.158
		c1.19,0,2.158-0.965,2.158-2.158v-7.112C346.936,139.92,345.971,138.955,344.781,138.955z"/>
</g>
<g>
	<path style="fill:#FDCA5C;" d="M456.888,346.453c-5.906-0.005-10.701,4.047-10.701,18.726c0,7.235,2.253,21.023,10.701,41.761
		c8.448-20.736,10.693-34.524,10.698-41.766C467.592,350.501,462.792,346.446,456.888,346.453z"/>
	<path style="fill:#FDCA5C;" d="M456.888,346.453c-3.686-0.005-6.664,2.519-6.666,11.668c-0.008,4.513,1.398,13.107,6.671,26.03
		c5.271-12.925,6.671-21.517,6.664-26.038C463.555,348.973,460.567,346.448,456.888,346.453z"/>
	<path style="fill:#FDCA5C;" d="M456.888,323.022c24.43,0,44.987,11.84,51.095,27.93c1.201-4.808,1.856-9.866,1.848-15.078
		c0.008-31.726-23.708-57.439-52.943-57.434c-29.251,0.003-52.954,25.718-52.956,57.441c0.003,5.204,0.655,10.271,1.859,15.071
		C411.891,334.864,432.451,323.027,456.888,323.022z"/>
</g>
<path style="fill:#FFFFFF;" d="M476.877,325.825c7.741-17.654,12.047-37.169,12.042-57.677
	c-0.003-34.289-12.001-65.764-32.054-90.463c-20.019,24.694-32.033,56.179-32.033,90.463c0.005,20.511,4.311,40.023,12.058,57.677
	L476.877,325.825L476.877,325.825z"/>
<path style="fill:#F77B55;" d="M432.563,314.697c1.295,3.779,2.742,7.491,4.329,11.131h39.985c1.6-3.638,3.039-7.347,4.332-11.139
	L432.563,314.697z"/>
<polygon style="fill:#FFFFFF;" points="481.999,344.229 431.77,344.224 439.892,325.828 473.876,325.833 "/>
<path style="fill:#FDCA5C;" d="M452.334,319.952c0,12.252,1.759,23.283,4.552,30.994c2.798-7.711,4.541-18.744,4.547-30.994
	c-0.005-12.255-1.751-23.288-4.547-30.996C454.088,296.669,452.342,307.693,452.334,319.952z"/>
<path style="fill:#FFFFFF;" d="M469.158,245.06c0,6.776-5.496,12.275-12.278,12.278c-6.779-0.005-12.273-5.494-12.267-12.285
	c0-6.774,5.483-12.265,12.265-12.268C463.654,232.782,469.148,238.283,469.158,245.06z"/>
<path style="fill:#F77B55;" d="M456.868,177.685c-9.098,11.223-16.54,23.852-21.947,37.507h43.919
	C473.428,201.529,465.989,188.898,456.868,177.685z"/>
<g>
	<path style="fill:#232E38;" d="M456.891,409.104L456.891,409.104c-0.878,0-1.667-0.532-1.997-1.344
		c-9.812-24.074-10.87-37.803-10.87-42.588c0-12.879,3.784-19.873,11.246-20.777c0.604-0.074,1.185,0.11,1.626,0.471
		c0.435-0.358,1.004-0.545,1.613-0.471c7.475,0.868,11.254,7.857,11.226,20.782c0,5.965-1.411,19.438-10.842,42.583
		C458.557,408.572,457.766,409.104,456.891,409.104z M456.893,348.207c-0.307,0.251-0.686,0.42-1.106,0.471
		c-1.846,0.223-7.452,0.906-7.452,16.494c0,4.191,0.883,15.683,8.556,35.886c7.647-20.15,8.525-31.675,8.525-35.886
		c0.036-15.629-5.568-16.279-7.411-16.494C457.582,348.627,457.201,348.458,456.893,348.207z"/>
	<path style="fill:#232E38;" d="M456.891,386.315L456.891,386.315c-0.876,0-1.664-0.53-1.994-1.341
		c-5.949-14.546-6.838-23.071-6.838-26.854c0-3.018,0-12.196,7.025-13.668c0.66-0.138,1.321,0.044,1.81,0.443
		c0.484-0.399,1.144-0.581,1.805-0.443c4.664,0.98,7.03,5.578,7.03,13.668c0,3.786-0.891,12.308-6.843,26.854
		C458.555,385.785,457.764,386.315,456.891,386.315z M456.891,348.233c-0.259,0.215-0.571,0.369-0.919,0.443
		c-2.391,0.499-3.599,3.679-3.599,9.441c0,2.437,0.486,8.883,4.521,20.047c4.037-11.167,4.521-17.61,4.521-20.047
		c0-5.765-1.211-8.942-3.597-9.441C457.462,348.601,457.149,348.448,456.891,348.233z"/>
	<path style="fill:#232E38;" d="M405.801,353.104c-0.044,0-0.082,0-0.123-0.003c-0.942-0.054-1.738-0.709-1.971-1.623
		c-1.277-5.012-1.925-10.26-1.925-15.598c0-19.315,8.694-37.494,23.258-48.627c0.945-0.719,2.299-0.543,3.026,0.404
		c0.724,0.945,0.543,2.301-0.405,3.026c-13.499,10.322-21.56,27.22-21.56,45.197c0,2.86,0.197,5.688,0.591,8.463
		c5.801-9.28,16.422-16.763,29.591-20.605c1.149-0.335,2.345,0.323,2.678,1.464s-0.323,2.342-1.467,2.675
		c-14.543,4.242-25.638,13.153-29.678,23.834C407.498,352.554,406.692,353.104,405.801,353.104z"/>
	<path style="fill:#232E38;" d="M507.981,353.104c-0.891,0-1.697-0.55-2.015-1.393c-4.045-10.662-15.137-19.561-29.678-23.803
		c-1.144-0.333-1.8-1.533-1.467-2.675c0.333-1.144,1.531-1.807,2.678-1.464c13.158,3.837,23.777,11.308,29.581,20.57
		c0.404-2.816,0.607-5.642,0.607-8.458c0-17.974-8.072-34.883-21.596-45.228c-0.947-0.722-1.124-2.079-0.402-3.026
		c0.724-0.945,2.079-1.124,3.026-0.399c14.579,11.154,23.288,29.343,23.288,48.653c0,5.21-0.648,10.452-1.925,15.585
		c-0.228,0.916-1.021,1.577-1.966,1.636C508.068,353.104,508.022,353.104,507.981,353.104z"/>
	<path style="fill:#232E38;" d="M476.892,327.996h-15.59c-1.193,0-2.161-0.965-2.161-2.158c0-1.193,0.968-2.161,2.161-2.161h14.17
		c0.622-1.467,1.213-2.947,1.787-4.426c0.31-0.809,0.62-1.631,0.901-2.447c0.294-0.74,0.517-1.38,0.745-2.035l0.22-0.625
		c0.023-0.097,0.049-0.174,0.082-0.256c2.842-8.356,4.879-16.85,6.057-25.247c0.988-6.612,1.487-13.499,1.487-20.485
		c0-18.022-3.341-35.579-9.923-52.183l-2.022-4.882c-2.762-6.257-6.029-12.403-9.7-18.22c-0.399-0.663-0.817-1.298-1.234-1.91
		c-2.127-3.297-4.47-6.582-7.004-9.818c-3.901,5.036-7.421,10.225-10.481,15.468c-0.863,1.472-1.695,2.962-2.529,4.48
		c-1.014,1.9-1.987,3.812-2.934,5.786l-0.392,0.837c-0.351,0.74-0.696,1.467-1.032,2.217c-0.3,0.63-0.545,1.211-0.796,1.789
		c-0.527,1.206-1.016,2.381-1.503,3.558l-0.238,0.655c-0.046,0.12-0.097,0.233-0.161,0.338c-6.508,16.52-9.802,33.971-9.802,51.884
		c0,6.812,0.499,13.706,1.487,20.503c1.659,11.535,4.764,22.833,9.231,33.592c0.2,0.484,0.392,0.963,0.591,1.428h14.164
		c1.193,0,2.161,0.968,2.161,2.161s-0.968,2.158-2.161,2.158h-15.59c-0.96,0-1.772-0.63-2.053-1.495
		c-0.384-0.86-0.742-1.723-1.106-2.611c-4.603-11.075-7.805-22.728-9.516-34.614c-1.014-6.994-1.533-14.103-1.533-21.12
		c0-18.565,3.443-36.657,10.23-53.775c0.033-0.087,0.069-0.166,0.113-0.246l0.164-0.451c0.52-1.265,1.019-2.465,1.549-3.668
		c0.266-0.63,0.54-1.257,0.84-1.889c0.323-0.73,0.684-1.492,1.05-2.26l0.397-0.837c0.975-2.048,1.976-4.022,3.039-5.998
		c0.863-1.572,1.715-3.1,2.598-4.6c3.594-6.162,7.808-12.255,12.521-18.109c0.407-0.512,1.019-0.806,1.674-0.809
		c0,0,0.003,0,0.005,0c0.65,0,1.265,0.292,1.672,0.799c3.279,4.035,6.285,8.161,8.932,12.265c0.428,0.625,0.883,1.324,1.311,2.022
		c3.761,5.967,7.13,12.301,9.999,18.803l2.058,4.961c6.792,17.129,10.232,35.223,10.232,53.793c0,7.199-0.515,14.298-1.533,21.105
		c-1.221,8.684-3.333,17.48-6.277,26.122c-0.005,0.01-0.008,0.02-0.008,0.031c-0.041,0.133-0.097,0.282-0.146,0.381l-0.128,0.397
		c-0.251,0.714-0.494,1.418-0.776,2.115c-0.259,0.765-0.586,1.631-0.916,2.499c-0.768,1.979-1.562,3.953-2.419,5.903
		C478.525,327.492,477.745,327.996,476.892,327.996z"/>
	<path style="fill:#232E38;" d="M452.477,327.996h-15.59c-0.96,0-1.772-0.63-2.053-1.495c-0.384-0.86-0.742-1.723-1.106-2.611
		c-1.124-2.734-2.173-5.517-3.203-8.494c-0.228-0.663-0.125-1.39,0.279-1.958c0.402-0.568,1.057-0.906,1.759-0.906h19.886
		c1.19,0,2.158,0.968,2.158,2.156c0,1.19-0.968,2.158-2.158,2.158h-16.827c0.681,1.853,1.375,3.64,2.099,5.414
		c0.197,0.481,0.392,0.952,0.589,1.418h14.164c1.193,0,2.161,0.968,2.161,2.161S453.67,327.996,452.477,327.996z"/>
	<path style="fill:#232E38;" d="M476.892,327.996h-15.59c-1.193,0-2.161-0.965-2.161-2.158c0-1.193,0.968-2.161,2.161-2.161h14.17
		c0.622-1.467,1.213-2.947,1.787-4.426c0.305-0.799,0.609-1.603,0.886-2.404h-16.812c-1.193,0-2.161-0.968-2.161-2.158
		c0-1.188,0.968-2.156,2.161-2.156h19.884c0.694,0,1.349,0.335,1.756,0.904c0.404,0.566,0.512,1.293,0.284,1.953
		c0,0-0.691,2.017-1.052,2.921c-0.259,0.765-0.586,1.631-0.916,2.499c-0.768,1.979-1.562,3.953-2.419,5.903
		C478.525,327.492,477.745,327.996,476.892,327.996z"/>
	<path style="fill:#232E38;" d="M454.917,346.372H431.78c-0.727,0-1.411-0.369-1.807-0.978c-0.397-0.612-0.463-1.382-0.166-2.051
		l8.1-18.376c0.346-0.786,1.121-1.29,1.974-1.29h12.598c1.193,0,2.161,0.968,2.161,2.161c0,1.193-0.968,2.158-2.161,2.158h-11.192
		l-6.198,14.06h19.83c1.193,0,2.158,0.968,2.158,2.158C457.075,345.404,456.11,346.372,454.917,346.372z"/>
	<path style="fill:#232E38;" d="M481.999,346.402h-23.135c-1.193,0-2.158-0.968-2.158-2.161s0.965-2.161,2.158-2.161h19.822
		l-6.223-14.085h-11.162c-1.193,0-2.161-0.965-2.161-2.158s0.968-2.161,2.161-2.161h12.57c0.852,0,1.628,0.504,1.974,1.29
		l8.125,18.401c0.297,0.666,0.233,1.439-0.161,2.048C483.41,346.029,482.729,346.402,481.999,346.402z"/>
	<path style="fill:#232E38;" d="M456.888,353.109c-0.906,0-1.72-0.571-2.028-1.423c-3.021-8.33-4.685-19.599-4.685-31.734
		c0.008-12.17,1.669-23.439,4.685-31.734c0.312-0.852,1.121-1.423,2.028-1.423h0.003c0.906,0.003,1.718,0.571,2.028,1.423
		c3.011,8.305,4.667,19.574,4.672,31.734c-0.005,12.16-1.664,23.429-4.675,31.734C458.609,352.539,457.795,353.109,456.888,353.109z
		 M456.888,296.733c-1.544,6.769-2.394,14.868-2.396,23.222c0,8.333,0.85,16.435,2.396,23.217
		c1.539-6.774,2.386-14.874,2.391-23.222C459.272,311.604,458.424,303.504,456.888,296.733z"/>
	<path style="fill:#232E38;" d="M456.883,259.493h-0.005c-7.956-0.005-14.428-6.484-14.426-14.441
		c0-7.951,6.472-14.423,14.426-14.426c7.951,0,14.428,6.474,14.438,14.431C471.314,253.016,464.84,259.49,456.883,259.493z
		 M456.883,234.942c-5.578,0-10.112,4.536-10.112,10.109c-0.005,5.581,4.534,10.125,10.109,10.13
		c5.581-0.005,10.122-4.544,10.122-10.122C466.993,239.481,462.454,234.942,456.883,234.942z"/>
	<path style="fill:#232E38;" d="M478.84,217.348h-43.919c-0.717,0-1.385-0.353-1.784-0.945c-0.402-0.591-0.484-1.341-0.223-2.004
		c5.448-13.747,12.946-26.555,22.28-38.072c0.41-0.507,1.024-0.799,1.674-0.799l0,0c0.65,0,1.265,0.292,1.674,0.794
		c9.336,11.476,16.84,24.287,22.303,38.077c0.266,0.663,0.182,1.413-0.22,2.004C480.225,216.997,479.555,217.348,478.84,217.348z
		 M438.134,213.034h37.494c-4.831-11.433-11.123-22.134-18.752-31.887C449.239,190.934,442.949,201.637,438.134,213.034z"/>
	<path style="fill:#232E38;" d="M456.868,179.841c-1.19,0-2.158-0.968-2.158-2.158v-11.74c0-1.19,0.968-2.156,2.158-2.156
		c1.193,0,2.161,0.965,2.161,2.156v11.74C459.028,178.876,458.061,179.841,456.868,179.841z"/>
	<path style="fill:#232E38;" d="M157.115,353.104c-0.041,0-0.082,0-0.123-0.003c-0.94-0.054-1.736-0.709-1.969-1.623
		c-1.277-5.012-1.923-10.26-1.923-15.598c0-19.315,8.694-37.494,23.255-48.627c0.945-0.719,2.301-0.543,3.026,0.404
		c0.724,0.945,0.543,2.301-0.404,3.026c-13.501,10.322-21.563,27.22-21.563,45.197c0,2.86,0.2,5.688,0.591,8.463
		c5.801-9.28,16.422-16.763,29.594-20.605c1.142-0.335,2.342,0.323,2.675,1.464s-0.323,2.342-1.467,2.675
		c-14.543,4.242-25.638,13.153-29.678,23.834C158.812,352.554,158.006,353.104,157.115,353.104z"/>
	<path style="fill:#232E38;" d="M259.297,353.104c-0.893,0-1.7-0.55-2.02-1.393c-4.042-10.662-15.137-19.561-29.678-23.803
		c-1.142-0.333-1.8-1.533-1.467-2.675c0.335-1.144,1.533-1.807,2.678-1.464c13.158,3.837,23.777,11.308,29.581,20.567
		c0.402-2.811,0.602-5.635,0.602-8.456c0-17.974-8.072-34.885-21.594-45.228c-0.945-0.722-1.124-2.079-0.402-3.026
		c0.724-0.945,2.081-1.124,3.026-0.399c14.579,11.151,23.286,29.34,23.286,48.653c0,5.22-0.65,10.463-1.923,15.585
		c-0.228,0.917-1.021,1.577-1.966,1.636C259.382,353.104,259.341,353.104,259.297,353.104z"/>
	<path style="fill:#232E38;" d="M228.206,327.996h-15.588c-1.193,0-2.158-0.965-2.158-2.158c0-1.193,0.965-2.161,2.158-2.161h14.17
		c0.62-1.467,1.208-2.947,1.784-4.426c0.307-0.806,0.62-1.631,0.904-2.45c0.276-0.696,0.492-1.303,0.704-1.917l0.264-0.745
		c0.023-0.097,0.049-0.172,0.079-0.253c2.836-8.333,4.874-16.829,6.06-25.244c0.986-6.612,1.487-13.499,1.487-20.485
		c0-18.022-3.338-35.579-9.92-52.183l-2.025-4.882c-2.765-6.262-6.036-12.408-9.7-18.22c-0.407-0.663-0.822-1.3-1.234-1.915
		c-2.127-3.29-4.472-6.574-7.004-9.812c-3.907,5.038-7.424,10.23-10.481,15.468c-0.863,1.472-1.692,2.962-2.524,4.48
		c-1.021,1.9-1.992,3.812-2.936,5.786l-0.364,0.768c-0.364,0.763-0.719,1.513-1.062,2.286c-0.297,0.627-0.545,1.208-0.794,1.789
		c-0.532,1.206-1.016,2.381-1.505,3.558l-0.241,0.666c-0.044,0.118-0.097,0.225-0.156,0.328c-6.508,16.52-9.805,33.974-9.805,51.884
		c0,6.804,0.502,13.704,1.49,20.503c1.659,11.533,4.767,22.833,9.231,33.592c0.2,0.484,0.394,0.963,0.594,1.428h14.167
		c1.19,0,2.156,0.968,2.156,2.161s-0.965,2.158-2.156,2.158h-15.59c-0.96,0-1.774-0.63-2.053-1.495
		c-0.381-0.86-0.745-1.72-1.108-2.609c-4.598-11.08-7.803-22.735-9.513-34.616c-1.016-6.999-1.533-14.111-1.533-21.12
		c0-18.565,3.441-36.657,10.227-53.775c0.033-0.084,0.072-0.166,0.115-0.246l0.164-0.451c0.522-1.265,1.019-2.465,1.551-3.674
		c0.266-0.622,0.538-1.249,0.837-1.879c0.335-0.755,0.707-1.541,1.083-2.335l0.366-0.771c0.978-2.045,1.981-4.019,3.041-5.996
		c0.86-1.572,1.713-3.1,2.596-4.598c3.589-6.159,7.803-12.252,12.516-18.112c0.41-0.512,1.024-0.804,1.677-0.809
		c0,0,0.003,0,0.005,0c0.65,0,1.265,0.292,1.674,0.799c3.284,4.04,6.29,8.166,8.934,12.265c0.428,0.627,0.886,1.324,1.306,2.025
		c3.758,5.96,7.13,12.293,9.999,18.801l2.058,4.954c6.792,17.139,10.235,35.233,10.235,53.804c0,7.199-0.517,14.298-1.533,21.105
		c-1.226,8.699-3.336,17.495-6.277,26.122c-0.005,0.01-0.005,0.02-0.01,0.031c-0.041,0.133-0.095,0.282-0.143,0.381l-0.166,0.509
		c-0.236,0.678-0.468,1.336-0.735,2.002c-0.261,0.765-0.586,1.628-0.916,2.493c-0.771,1.984-1.564,3.958-2.422,5.908
		C229.837,327.492,229.061,327.996,228.206,327.996z"/>
	<path style="fill:#232E38;" d="M203.794,327.996h-15.59c-0.96,0-1.774-0.63-2.053-1.495c-0.381-0.86-0.745-1.72-1.108-2.609
		c-1.121-2.732-2.171-5.514-3.205-8.497c-0.228-0.66-0.123-1.39,0.282-1.956c0.404-0.571,1.06-0.906,1.759-0.906h19.889
		c1.19,0,2.156,0.968,2.156,2.156c0,1.19-0.965,2.158-2.156,2.158h-16.827c0.678,1.856,1.375,3.645,2.099,5.414
		c0.197,0.481,0.392,0.952,0.591,1.418h14.167c1.19,0,2.156,0.968,2.156,2.161C205.952,327.033,204.984,327.996,203.794,327.996z"/>
	<path style="fill:#232E38;" d="M228.206,327.996h-15.588c-1.193,0-2.158-0.965-2.158-2.158c0-1.193,0.965-2.161,2.158-2.161h14.17
		c0.62-1.467,1.208-2.947,1.784-4.426c0.302-0.794,0.609-1.603,0.888-2.404h-16.814c-1.193,0-2.161-0.968-2.161-2.158
		c0-1.188,0.968-2.156,2.161-2.156h19.884c0.696,0,1.349,0.335,1.756,0.904c0.407,0.566,0.509,1.293,0.287,1.953
		c0,0-0.694,2.017-1.055,2.921c-0.261,0.765-0.586,1.628-0.916,2.493c-0.771,1.984-1.564,3.958-2.422,5.908
		C229.837,327.492,229.061,327.996,228.206,327.996z"/>
	<path style="fill:#232E38;" d="M206.231,346.372h-23.135c-0.73,0-1.411-0.369-1.807-0.978c-0.399-0.612-0.461-1.382-0.166-2.051
		l8.1-18.376c0.346-0.786,1.119-1.29,1.974-1.29h12.598c1.19,0,2.156,0.968,2.156,2.161c0,1.193-0.965,2.158-2.156,2.158h-11.192
		l-6.198,14.06h19.827c1.193,0,2.161,0.968,2.161,2.158C208.392,345.404,207.421,346.372,206.231,346.372z"/>
	<path style="fill:#232E38;" d="M233.316,346.402h-23.135c-1.19,0-2.158-0.968-2.158-2.161s0.968-2.161,2.158-2.161h19.825
		l-6.223-14.085h-11.162c-1.193,0-2.158-0.965-2.158-2.158s0.965-2.161,2.158-2.161h12.567c0.852,0,1.628,0.504,1.974,1.29
		l8.128,18.401c0.294,0.666,0.233,1.439-0.166,2.048C234.726,346.029,234.045,346.402,233.316,346.402z"/>
	<path style="fill:#232E38;" d="M208.202,353.109c-0.906,0-1.72-0.571-2.028-1.423c-3.021-8.33-4.685-19.599-4.685-31.734
		c0.008-12.17,1.669-23.439,4.687-31.734c0.31-0.852,1.121-1.423,2.028-1.423h0.003c0.906,0.003,1.715,0.571,2.028,1.423
		c3.008,8.307,4.664,19.576,4.669,31.734c-0.005,12.16-1.664,23.429-4.675,31.734C209.92,352.539,209.108,353.109,208.202,353.109z
		 M208.202,296.733c-1.544,6.769-2.394,14.868-2.396,23.222c0,8.333,0.85,16.435,2.396,23.217
		c1.539-6.774,2.386-14.874,2.391-23.222C210.586,311.607,209.738,303.507,208.202,296.733z"/>
	<path style="fill:#232E38;" d="M208.197,259.493L208.197,259.493c-7.959-0.005-14.431-6.484-14.428-14.441
		c0-7.951,6.472-14.423,14.423-14.426c7.951,0,14.431,6.474,14.441,14.431C222.63,253.016,216.154,259.49,208.197,259.493z
		 M208.197,234.942c-5.576,0-10.115,4.536-10.115,10.109c0,5.581,4.536,10.125,10.115,10.13c5.581-0.005,10.12-4.544,10.12-10.122
		C218.307,239.481,213.768,234.942,208.197,234.942z"/>
	<path style="fill:#232E38;" d="M230.154,217.348h-43.922c-0.714,0-1.382-0.353-1.784-0.945c-0.402-0.591-0.484-1.341-0.22-2.004
		c5.445-13.747,12.943-26.555,22.28-38.072c0.41-0.507,1.024-0.799,1.674-0.799h0.003c0.65,0,1.265,0.292,1.674,0.794
		c9.334,11.476,16.842,24.287,22.303,38.077c0.266,0.663,0.182,1.413-0.22,2.004C231.537,216.997,230.868,217.348,230.154,217.348z
		 M189.448,213.034h37.494c-4.833-11.433-11.126-22.134-18.757-31.887C200.556,190.934,194.266,201.637,189.448,213.034z"/>
	<path style="fill:#232E38;" d="M208.184,179.841c-1.193,0-2.158-0.968-2.158-2.158v-11.74c0-1.19,0.965-2.156,2.158-2.156
		s2.158,0.965,2.158,2.156v11.74C210.342,178.876,209.377,179.841,208.184,179.841z"/>
	<path style="fill:#232E38;" d="M109.463,332.176c-0.374,0-0.745-0.1-1.078-0.289c-0.668-0.384-1.08-1.098-1.08-1.869v-20.111
		c0-0.773,0.412-1.485,1.08-1.869c0.666-0.384,1.49-0.384,2.156,0l17.418,10.058c0.668,0.387,1.078,1.098,1.078,1.869
		s-0.412,1.482-1.078,1.866l-17.418,10.058C110.208,332.077,109.837,332.176,109.463,332.176z M111.624,313.639v12.641l10.944-6.321
		L111.624,313.639z"/>
	<path style="fill:#232E38;" d="M304.891,264.277c-0.374,0-0.748-0.095-1.083-0.287l-17.416-10.056
		c-0.671-0.384-1.083-1.098-1.083-1.869c0-0.771,0.412-1.485,1.083-1.869l17.416-10.053c0.671-0.384,1.492-0.384,2.158,0
		c0.671,0.384,1.08,1.098,1.08,1.869v20.109c0,0.773-0.41,1.482-1.08,1.869C305.633,264.183,305.262,264.277,304.891,264.277z
		 M291.786,252.066l10.944,6.318v-12.639L291.786,252.066z"/>
	<path style="fill:#232E38;" d="M157.112,353.109h-30.231c-1.19,0-2.158-0.968-2.158-2.161v-61.98c0-1.19,0.965-2.158,2.158-2.158
		h50.785c1.19,0,2.158,0.968,2.158,2.158c0,1.19-0.968,2.158-2.158,2.158h-48.627v57.664h28.073c1.19,0,2.158,0.965,2.158,2.158
		C159.27,352.142,158.303,353.109,157.112,353.109z"/>
	<path style="fill:#232E38;" d="M187.622,217.348h-60.741c-1.19,0-2.158-0.968-2.158-2.158v-37.517c0-1.193,0.965-2.161,2.158-2.161
		h81.295c1.19,0,2.156,0.968,2.156,2.161c0,1.19-0.965,2.158-2.156,2.158h-79.137v33.203h58.583c1.19,0,2.158,0.968,2.158,2.156
		C189.78,216.38,188.813,217.348,187.622,217.348z"/>
	<path style="fill:#232E38;" d="M208.2,259.493h-81.318c-1.19,0-2.158-0.965-2.158-2.156v-24.553c0-1.193,0.965-2.158,2.158-2.158
		h81.295c1.19,0,2.156,0.965,2.156,2.158s-0.965,2.158-2.156,2.158h-79.137v20.239h79.16c1.193,0,2.158,0.965,2.158,2.156
		C210.358,258.528,209.39,259.493,208.2,259.493z"/>
	<path style="fill:#232E38;" d="M287.47,291.101h-48.753c-1.193,0-2.161-0.968-2.161-2.161s0.968-2.161,2.161-2.161h46.592v-69.432
		h-55.155c-1.19,0-2.158-0.968-2.158-2.158c0-1.188,0.968-2.156,2.158-2.156h57.316c1.193,0,2.161,0.968,2.161,2.156v73.751
		C289.631,290.133,288.663,291.101,287.47,291.101z"/>
	<path style="fill:#232E38;" d="M109.463,208.646c-0.374,0-0.745-0.1-1.078-0.289c-0.668-0.384-1.08-1.098-1.08-1.869v-20.114
		c0-0.771,0.412-1.485,1.08-1.869c0.666-0.384,1.49-0.384,2.156,0l17.418,10.056c0.668,0.387,1.078,1.098,1.078,1.869
		s-0.412,1.482-1.078,1.869l-17.418,10.058C110.208,208.549,109.837,208.646,109.463,208.646z M111.624,190.109v12.644l10.944-6.321
		L111.624,190.109z"/>
	<path style="fill:#232E38;" d="M109.463,257.273c-0.374,0-0.745-0.095-1.078-0.287c-0.668-0.387-1.08-1.098-1.08-1.869v-20.114
		c0-0.771,0.412-1.482,1.08-1.869c0.666-0.384,1.49-0.384,2.156,0l17.418,10.058c0.668,0.384,1.078,1.098,1.078,1.869
		s-0.412,1.485-1.078,1.869l-17.418,10.056C110.208,257.179,109.837,257.273,109.463,257.273z M111.624,238.742v12.639l10.944-6.318
		L111.624,238.742z"/>
</g>
<polygon style="fill:#FFFFFF;" points="266.962,441.478 288.415,430.759 266.962,420.033 "/>
<rect x="2.168" y="420.02" style="fill:#FDCA5C;" width="264.806" height="21.445"/>
<polygon style="fill:#232E38;" points="280.015,434.945 288.415,430.759 280.015,426.543 "/>
<rect x="20.163" y="420.02" style="fill:#FFFFFF;" width="7.578" height="21.445"/>
<rect id="SVGCleanerId_0" x="2.168" y="420.02" style="fill:#F77B55;" width="17.997" height="21.445"/>
<g>
	<path style="fill:#232E38;" d="M266.962,443.639c-0.392,0-0.791-0.108-1.132-0.323c-0.637-0.392-1.024-1.091-1.024-1.838v-21.445
		c0-0.748,0.387-1.441,1.024-1.833c0.63-0.397,1.431-0.433,2.097-0.095l21.453,10.721c0.73,0.366,1.19,1.114,1.19,1.93
		s-0.461,1.564-1.19,1.928l-21.453,10.724C267.622,443.562,267.295,443.639,266.962,443.639z M269.12,423.525v14.461l14.469-7.229
		L269.12,423.525z"/>
	<path style="fill:#232E38;" d="M266.962,443.639H2.168c-1.19,0-2.158-0.968-2.158-2.161v-21.445c0-1.19,0.968-2.156,2.158-2.156
		h264.794c1.193,0,2.158,0.965,2.158,2.156v21.445C269.12,442.671,268.155,443.639,266.962,443.639z M4.326,439.32h260.48v-17.129
		H4.326V439.32z"/>
	<path style="fill:#232E38;" d="M266.962,432.91H27.743c-1.19,0-2.158-0.968-2.158-2.161s0.965-2.161,2.158-2.161h237.061v-6.41
		H4.326v8.571c0,1.193-0.965,2.161-2.158,2.161s-2.158-0.968-2.158-2.161v-10.726c0-1.19,0.968-2.155,2.158-2.155h264.794
		c1.19,0,2.156,0.965,2.156,2.155v10.726C269.117,431.945,268.152,432.91,266.962,432.91z"/>
	<path style="fill:#232E38;" d="M280.015,437.103c-0.392,0-0.788-0.108-1.134-0.325c-0.635-0.392-1.019-1.088-1.019-1.833v-8.402
		c0-0.748,0.384-1.441,1.024-1.833c0.635-0.397,1.428-0.433,2.099-0.095l8.397,4.214c0.73,0.369,1.19,1.119,1.188,1.933
		c0,0.817-0.461,1.564-1.193,1.928l-8.397,4.188C280.676,437.029,280.346,437.103,280.015,437.103z M282.176,430.038v1.421
		l1.416-0.704L282.176,430.038z"/>
	<path style="fill:#232E38;" d="M27.74,443.639h-7.578c-1.19,0-2.158-0.968-2.158-2.161v-21.445c0-1.19,0.968-2.156,2.158-2.156
		h7.578c1.19,0,2.158,0.965,2.158,2.156v21.445C29.898,442.671,28.931,443.639,27.74,443.639z M22.321,439.32h3.261v-17.129h-3.261
		V439.32z"/>
</g>
<g>
	<rect id="SVGCleanerId_0_1_" x="2.168" y="420.02" style="fill:#F77B55;" width="17.997" height="21.445"/>
</g>
<path style="fill:#232E38;" d="M20.163,443.639H2.168c-1.19,0-2.158-0.968-2.158-2.161v-21.445c0-1.19,0.968-2.156,2.158-2.156
	h17.994c1.19,0,2.158,0.965,2.158,2.156v21.445C22.321,442.671,21.353,443.639,20.163,443.639z M4.326,439.32h13.678v-17.129H4.326
	V439.32z"/>
<rect x="127.172" y="149.532" transform="matrix(-0.8425 -0.5387 0.5387 -0.8425 423.9708 463.7132)" style="fill:#F77B55;" width="305.204" height="40.691"/>
<g>
	<path style="fill:#232E38;" d="M397.363,271.374c-0.394,0-0.799-0.11-1.16-0.338L139.082,106.62
		c-0.481-0.31-0.822-0.799-0.945-1.357c-0.123-0.558-0.018-1.142,0.289-1.626l21.921-34.281c0.643-1.001,1.976-1.293,2.982-0.655
		L420.452,233.12c0.481,0.31,0.819,0.799,0.942,1.354c0.123,0.558,0.02,1.144-0.287,1.626l-21.924,34.278
		C398.774,271.021,398.075,271.374,397.363,271.374z M143.224,104.144L396.71,266.236l19.597-30.643L162.824,73.499L143.224,104.144
		z"/>
	<path style="fill:#232E38;" d="M163.428,89.583c-0.397,0-0.799-0.108-1.16-0.335c-1.004-0.645-1.298-1.979-0.655-2.982
		l7.306-11.428c0.645-1.004,1.976-1.295,2.982-0.658c1.004,0.645,1.298,1.979,0.655,2.982l-7.306,11.428
		C164.836,89.232,164.14,89.583,163.428,89.583z"/>
	<path style="fill:#232E38;" d="M180.57,100.545c-0.397,0-0.801-0.11-1.16-0.343c-1.004-0.64-1.298-1.974-0.655-2.98l7.309-11.425
		c0.64-1.004,1.976-1.295,2.98-0.653c1.004,0.64,1.298,1.974,0.655,2.98l-7.309,11.425
		C181.975,100.194,181.281,100.545,180.57,100.545z"/>
	<path style="fill:#232E38;" d="M197.709,111.507c-0.397,0-0.799-0.11-1.16-0.34c-1.004-0.643-1.298-1.976-0.653-2.98l7.306-11.425
		c0.645-1.006,1.974-1.298,2.98-0.655c1.004,0.643,1.298,1.976,0.653,2.98l-7.306,11.425
		C199.119,111.156,198.42,111.507,197.709,111.507z"/>
	<path style="fill:#232E38;" d="M214.853,122.469c-0.399,0-0.801-0.11-1.16-0.343c-1.006-0.64-1.298-1.974-0.658-2.98l7.306-11.428
		c0.645-1.001,1.976-1.295,2.982-0.653c1.004,0.64,1.295,1.974,0.658,2.98l-7.309,11.428
		C216.261,122.118,215.565,122.469,214.853,122.469z"/>
	<path style="fill:#232E38;" d="M231.995,133.431c-0.399,0-0.801-0.11-1.16-0.34c-1.006-0.64-1.298-1.976-0.655-2.98l7.309-11.43
		c0.643-1.006,1.974-1.295,2.98-0.658c1.004,0.645,1.298,1.979,0.653,2.982l-7.306,11.43
		C233.403,133.08,232.701,133.431,231.995,133.431z"/>
	<path style="fill:#232E38;" d="M249.134,144.393c-0.397,0-0.799-0.11-1.16-0.343c-1.004-0.64-1.298-1.974-0.655-2.98l7.306-11.428
		c0.645-1.001,1.974-1.295,2.98-0.653c1.006,0.64,1.298,1.974,0.658,2.98l-7.309,11.428
		C250.542,144.042,249.848,144.393,249.134,144.393z"/>
	<path style="fill:#232E38;" d="M266.278,155.355c-0.399,0-0.801-0.11-1.16-0.34c-1.009-0.643-1.301-1.976-0.658-2.98l7.309-11.428
		c0.64-1.004,1.974-1.298,2.98-0.655c1.006,0.643,1.301,1.976,0.655,2.98l-7.306,11.428
		C267.684,155.004,266.988,155.355,266.278,155.355z"/>
	<path style="fill:#232E38;" d="M283.418,166.311c-0.397,0-0.799-0.108-1.16-0.338c-1.004-0.645-1.298-1.976-0.655-2.982
		l7.306-11.428c0.645-1.004,1.974-1.293,2.98-0.655c1.009,0.643,1.3,1.976,0.658,2.982l-7.306,11.428
		C284.826,165.961,284.129,166.311,283.418,166.311z"/>
	<path style="fill:#232E38;" d="M300.557,177.273c-0.397,0-0.801-0.108-1.162-0.338c-1.001-0.643-1.295-1.976-0.653-2.98
		l7.309-11.428c0.643-1.006,1.974-1.298,2.98-0.655c1.004,0.643,1.295,1.976,0.655,2.98l-7.311,11.428
		C301.965,176.923,301.271,177.273,300.557,177.273z"/>
	<path style="fill:#232E38;" d="M317.701,188.235c-0.397,0-0.801-0.11-1.16-0.338c-1.006-0.645-1.298-1.979-0.658-2.982
		l7.309-11.428c0.64-1.004,1.974-1.293,2.98-0.658c1.004,0.645,1.298,1.979,0.655,2.982l-7.306,11.428
		C319.107,187.885,318.41,188.235,317.701,188.235z"/>
	<path style="fill:#232E38;" d="M334.843,199.197c-0.399,0-0.801-0.108-1.16-0.338c-1.006-0.643-1.298-1.976-0.658-2.982
		l7.306-11.428c0.645-1.004,1.976-1.293,2.982-0.655c1.006,0.645,1.298,1.976,0.658,2.982l-7.306,11.428
		C336.251,198.846,335.555,199.197,334.843,199.197z"/>
	<path style="fill:#232E38;" d="M360.553,215.643c-0.397,0-0.801-0.11-1.16-0.34c-1.004-0.64-1.298-1.976-0.655-2.98l7.306-11.43
		c0.645-1.004,1.974-1.295,2.98-0.658c1.006,0.645,1.298,1.979,0.658,2.982l-7.309,11.43
		C361.961,215.292,361.265,215.643,360.553,215.643z"/>
	<path style="fill:#232E38;" d="M377.692,226.599c-0.397,0-0.801-0.108-1.16-0.338c-1.004-0.643-1.295-1.976-0.658-2.982
		l7.309-11.43c0.643-1.001,1.976-1.293,2.98-0.653c1.006,0.64,1.298,1.974,0.658,2.98l-7.306,11.43
		C379.103,226.246,378.404,226.599,377.692,226.599z"/>
	<path style="fill:#232E38;" d="M394.834,237.561c-0.397,0-0.799-0.108-1.16-0.335c-1.004-0.645-1.298-1.979-0.655-2.982
		l7.306-11.428c0.645-1.004,1.974-1.295,2.98-0.658c1.009,0.645,1.3,1.979,0.658,2.982l-7.306,11.428
		C396.242,237.211,395.551,237.561,394.834,237.561z"/>
	<path style="fill:#232E38;" d="M175.46,89.657c-0.399,0-0.801-0.11-1.162-0.343c-1.004-0.64-1.298-1.974-0.653-2.98l3.85-6.021
		c0.64-1.001,1.974-1.293,2.98-0.653c1.006,0.643,1.298,1.974,0.655,2.98l-3.85,6.019C176.865,89.307,176.169,89.657,175.46,89.657z
		"/>
	<path style="fill:#232E38;" d="M192.599,100.619c-0.397,0-0.801-0.11-1.16-0.34c-1.004-0.643-1.295-1.976-0.655-2.98l3.85-6.019
		c0.64-1.001,1.979-1.293,2.982-0.655c1.001,0.643,1.293,1.976,0.653,2.98l-3.85,6.019
		C194.007,100.269,193.311,100.619,192.599,100.619z"/>
	<path style="fill:#232E38;" d="M209.743,111.581c-0.399,0-0.801-0.11-1.16-0.343c-1.006-0.64-1.298-1.974-0.653-2.98l3.848-6.019
		c0.643-1.001,1.974-1.293,2.98-0.653c1.009,0.64,1.3,1.974,0.655,2.98l-3.848,6.019
		C211.151,111.23,210.452,111.581,209.743,111.581z"/>
	<path style="fill:#232E38;" d="M226.883,122.543c-0.399,0-0.801-0.11-1.16-0.34c-1.006-0.64-1.298-1.974-0.658-2.98l3.85-6.021
		c0.64-1.004,1.974-1.295,2.98-0.658c1.004,0.645,1.298,1.979,0.653,2.982l-3.845,6.021
		C228.291,122.192,227.592,122.543,226.883,122.543z"/>
	<path style="fill:#232E38;" d="M244.022,133.5c-0.397,0-0.799-0.108-1.16-0.338c-1.004-0.643-1.298-1.976-0.653-2.982l3.848-6.019
		c0.64-1.004,1.974-1.295,2.98-0.655c1.009,0.643,1.3,1.976,0.658,2.982l-3.85,6.019C245.43,133.149,244.733,133.5,244.022,133.5z"
		/>
	<path style="fill:#232E38;" d="M261.161,144.467c-0.394,0-0.799-0.108-1.16-0.335c-1.004-0.645-1.298-1.979-0.653-2.982
		l3.853-6.024c0.64-1.004,1.974-1.295,2.977-0.658c1.006,0.645,1.3,1.979,0.655,2.982l-3.853,6.024
		C262.569,144.116,261.873,144.467,261.161,144.467z"/>
	<path style="fill:#232E38;" d="M278.305,155.424c-0.394,0-0.799-0.108-1.16-0.338c-1.004-0.645-1.298-1.976-0.655-2.982
		l3.848-6.021c0.64-1.004,1.974-1.293,2.98-0.653c1.009,0.64,1.3,1.974,0.658,2.98l-3.85,6.024
		C279.713,155.073,279.017,155.424,278.305,155.424z"/>
	<path style="fill:#232E38;" d="M295.444,166.386c-0.397,0-0.801-0.108-1.16-0.338c-1.006-0.643-1.298-1.976-0.655-2.98l3.853-6.021
		c0.64-1.004,1.976-1.298,2.98-0.655c1.004,0.643,1.295,1.976,0.655,2.98l-3.853,6.021
		C296.852,166.035,296.156,166.386,295.444,166.386z"/>
	<path style="fill:#232E38;" d="M312.589,177.348c-0.399,0-0.801-0.113-1.16-0.343c-1.009-0.64-1.3-1.974-0.658-2.98l3.85-6.019
		c0.643-1.004,1.974-1.293,2.98-0.653c1.004,0.64,1.298,1.974,0.653,2.98l-3.848,6.021
		C313.997,176.997,313.298,177.348,312.589,177.348z"/>
	<path style="fill:#232E38;" d="M329.728,188.309c-0.394,0-0.799-0.11-1.16-0.34c-1.001-0.64-1.295-1.976-0.653-2.98l3.845-6.019
		c0.645-1.004,1.979-1.293,2.982-0.655c1.006,0.64,1.298,1.976,0.658,2.98l-3.85,6.019
		C331.139,187.959,330.442,188.309,329.728,188.309z"/>
	<path style="fill:#232E38;" d="M346.87,199.266c-0.399,0-0.801-0.11-1.16-0.34c-1.006-0.643-1.298-1.976-0.655-2.98l3.85-6.019
		c0.64-1.001,1.974-1.295,2.98-0.653c1.006,0.64,1.3,1.974,0.655,2.98l-3.85,6.019C348.278,198.916,347.581,199.266,346.87,199.266z
		"/>
	<path style="fill:#232E38;" d="M355.441,204.75c-0.397,0-0.801-0.11-1.16-0.34c-1.006-0.643-1.298-1.976-0.655-2.98l3.85-6.016
		c0.643-1.004,1.976-1.295,2.98-0.655c1.006,0.643,1.295,1.976,0.655,2.98l-3.85,6.016
		C356.849,204.399,356.152,204.75,355.441,204.75z"/>
	<path style="fill:#232E38;" d="M372.58,215.712c-0.397,0-0.801-0.108-1.16-0.338c-1.004-0.643-1.298-1.976-0.655-2.982l3.85-6.021
		c0.643-1.001,1.974-1.293,2.982-0.653c1.001,0.64,1.295,1.974,0.653,2.98l-3.85,6.021
		C373.988,215.361,373.292,215.712,372.58,215.712z"/>
	<path style="fill:#232E38;" d="M389.722,226.674c-0.394,0-0.799-0.11-1.16-0.34c-1.001-0.64-1.295-1.976-0.653-2.98l3.845-6.019
		c0.645-1.001,1.976-1.293,2.982-0.655c1.006,0.64,1.298,1.976,0.658,2.98l-3.85,6.019
		C391.132,226.323,390.438,226.674,389.722,226.674z"/>
	<path style="fill:#232E38;" d="M406.863,237.636c-0.397,0-0.799-0.11-1.16-0.343c-1.004-0.64-1.298-1.974-0.655-2.98l3.848-6.019
		c0.645-1.001,1.979-1.293,2.982-0.653c1.006,0.64,1.298,1.974,0.658,2.98l-3.85,6.019
		C408.269,237.282,407.578,237.636,406.863,237.636z"/>
</g>
<g>
</g>
<g>
</g>
<g>
</g>
<g>
</g>
<g>
</g>
<g>
</g>
<g>
</g>
<g>
</g>
<g>
</g>
<g>
</g>
<g>
</g>
<g>
</g>
<g>
</g>
<g>
</g>
<g>
</g>
</svg>
