<?xml version="1.0" encoding="iso-8859-1"?>
<!-- Generator: Adobe Illustrator 19.0.0, SVG Export Plug-In . SVG Version: 6.00 Build 0)  -->
<svg version="1.1" id="Layer_1" xmlns="http://www.w3.org/2000/svg" xmlns:xlink="http://www.w3.org/1999/xlink" x="0px" y="0px"
	 viewBox="0 0 512 512" style="enable-background:new 0 0 512 512;" xml:space="preserve">
<circle style="fill:#ADECF7;" cx="256" cy="256" r="256"/>
<g>
	<path style="fill:#FFFFFF;" d="M409.118,431.15c0.723-3.34,1.136-6.801,1.136-10.369c0-26.726-21.679-48.396-48.399-48.396
		c-11.224,0-21.54,3.861-29.755,10.286c-2.547-7.63-9.741-13.127-18.214-13.127c-6.091,0-10.98,3.201-14.974,7.194
		c-5.341,5.348-15.908,0.469-17.583-0.634c-7.72-5.047-20.582-15.149-20.582-58.867l-0.059-8.532c0-4.75,2.005-7.105,4.684-7.578
		c3.092-0.548,5.579-2.841,5.579-6.022c0-0.013-0.007-0.026-0.007-0.033c5.797-0.208,10.438-4.932,10.438-10.778
		c0-5.972-4.833-10.811-10.805-10.811c-3.207,0-6.058,1.427-8.037,3.647c-0.565-1.503-2.012-2.583-3.716-2.583
		c-1.513,0-2.831,0.869-3.495,2.127c-1.034-1.883-3.013-3.188-5.315-3.188c-2.342,0-4.357,1.358-5.368,3.303
		c-1.083-0.495-2.296-0.793-3.581-0.793c-4.773,0-8.641,3.868-8.641,8.648c0,4.773,3.868,8.645,8.641,8.645
		c0.066,0,0.116-0.017,0.175-0.02c-0.066,0.281-0.175,0.545-0.175,0.846c0,1.688,1.156,2.993,2.643,3.577
		c1.5,0.598,2.481,2.213,2.481,3.964v29.855c0,17.064-2.141,28.897-7.891,37.072c-2.018,2.864-4.79,5.288-8.542,5.288
		c-2.956,0-5.645-1.341-7.376-3.455c0.03,0.046,0.043,0.083,0.069,0.126c-4.446-7.257-12.437-12.113-21.56-12.113
		c-8.38,0-15.78,4.076-20.388,10.352c-8.711-5.784-19.142-9.17-30.383-9.17c-30.376,0-55.002,24.629-55.002,55.009
		c0,30.373,24.626,55.002,55.002,55.002c12.146,0,23.327-3.98,32.424-10.64c0.945,10.593,9.837,18.891,20.668,18.891
		c11.479,0,20.767-9.302,20.767-20.771c0-1.189-0.116-2.355-0.314-3.501c4.264,2.045,9.018,3.227,14.065,3.227
		c8.892,0,16.926-3.561,22.805-9.328c-0.003,0.168-0.046,0.324-0.046,0.495c0,7.023,5.695,12.711,12.714,12.711
		c3.373,0,6.405-1.328,8.678-3.468c3.898,11.974,15.139,20.635,28.408,20.635c11.426,0,21.339-6.415,26.36-15.832
		c7.35,4.496,15.958,7.135,25.207,7.135c12.341,0,23.569-4.651,32.114-12.258c2.292,1.434,4.998,2.299,7.895,2.299
		c8.301,0,15.02-6.715,15.02-15C416.877,438.573,413.709,433.71,409.118,431.15z"/>
	<path style="fill:#FFFFFF;" d="M330.613,208.585c-33.197-27.503-56.158-69.999-56.158-116.485v157.987h68.757V235.57
		C343.212,224.742,338.363,215,330.613,208.585z"/>
</g>
<g>
	<path style="fill:#353F49;" d="M330.613,208.585c-33.197-27.503-56.158-69.999-56.158-116.485v68.139h8.076
		c10.118,20.691,24.715,39.47,42.939,54.556c6.154,5.1,9.682,12.671,9.682,20.781v14.518h8.06v-14.518
		C343.212,224.742,338.363,215,330.613,208.585z"/>
	<rect x="313.08" y="238.361" style="fill:#353F49;" width="22.488" height="2.253"/>
</g>
<path style="fill:#FFFFFF;" d="M181.387,208.585c33.204-27.503,56.155-69.999,56.155-116.485v157.987h-68.753V235.57
	C168.788,224.742,173.647,215,181.387,208.585z"/>
<g>
	<path style="fill:#353F49;" d="M181.387,208.585c33.204-27.503,56.155-69.999,56.155-116.485v68.139h-8.07
		c-10.118,20.691-24.725,39.47-42.942,54.556c-6.144,5.1-9.678,12.671-9.678,20.781v14.518h-8.063v-14.518
		C168.788,224.742,173.647,215,181.387,208.585z"/>
	<rect x="176.425" y="238.361" style="fill:#353F49;" width="22.488" height="2.253"/>
</g>
<path style="fill:#FFFFFF;" d="M282.201,64.129L256,70.729l-26.201-6.6c0.172-0.631,0.406-1.222,0.72-1.784
	c0.102-0.185,0.188-0.363,0.301-0.545L256,18.191L281.187,61.8c0.112,0.182,0.192,0.36,0.307,0.545
	C281.792,62.907,282.036,63.498,282.201,64.129z"/>
<polygon style="fill:#D9D8D7;" points="256,18.191 264.724,65.05 264.836,66.491 281.187,61.8 "/>
<polygon style="fill:#474F59;" points="256,18.191 246.952,33.868 265.054,33.868 "/>
<polygon style="fill:#353F49;" points="256,18.191 258.923,33.868 265.054,33.868 "/>
<rect x="229.475" y="66.494" style="fill:#FF916E;" width="17.685" height="174.13"/>
<rect x="247.154" y="66.494" style="fill:#F77B55;" width="17.682" height="174.13"/>
<rect x="264.82" y="66.494" style="fill:#EE643C;" width="17.695" height="174.13"/>
<circle style="fill:#FF916E;" cx="238.328" cy="66.494" r="8.843"/>
<circle style="fill:#F77B55;" cx="256" cy="66.494" r="8.846"/>
<path style="fill:#EE643C;" d="M282.531,66.491c0,4.882-3.974,8.839-8.846,8.839c-4.889,0-8.843-3.957-8.843-8.839
	c0-4.885,3.951-8.839,8.843-8.839C278.558,57.651,282.531,61.605,282.531,66.491z"/>
<rect x="227.89" y="240.62" style="fill:#F2F2F2;" width="56.221" height="18.967"/>
<rect x="264.82" y="240.62" style="fill:#D9D8D7;" width="19.264" height="18.967"/>
<path style="fill:#474F59;" d="M282.531,267.941c0,2.715-1.047,5.43-3.118,7.502c-2.074,2.071-4.79,3.105-7.505,3.105h-31.813
	c-2.712,0-5.44-1.034-7.502-3.105c-2.074-2.074-3.122-4.786-3.122-7.502v-8.354h53.06V267.941z"/>
<path style="fill:#353F49;" d="M264.836,259.587v8.354c0,2.715-1.034,5.43-3.108,7.502c-2.074,2.071-4.78,3.105-7.502,3.105h17.682
	c2.715,0,5.434-1.034,7.505-3.105c2.071-2.074,3.118-4.786,3.118-7.502v-8.354L264.836,259.587L264.836,259.587z"/>
<rect x="253.909" y="217.719" style="fill:#474F59;" width="4.185" height="41.868"/>
<g>
	<circle style="fill:#FFFFFF;" cx="395.33" cy="294.516" r="17.458"/>
	<circle style="fill:#FFFFFF;" cx="146.333" cy="134.263" r="11.221"/>
	<circle style="fill:#FFFFFF;" cx="153.821" cy="275.489" r="7.482"/>
</g>
<g>
	<circle style="fill:#ADECF7;" cx="397.477" cy="19.122" r="5.279"/>
	<path style="fill:#ADECF7;" d="M86.085,26.819c0,7.303-5.909,13.223-13.21,13.223c-7.284,0-13.216-5.919-13.216-13.223
		c0-7.3,5.933-13.22,13.216-13.22C80.173,13.599,86.085,19.519,86.085,26.819z"/>
</g>
<g>
	<path style="fill:#FFFFFF;" d="M465.104,185.569c-10.953,0-19.826,8.896-19.826,19.819c0-10.924-8.859-19.819-19.813-19.819
		c10.953,0,19.813-8.892,19.813-19.813C445.278,176.673,454.147,185.569,465.104,185.569z"/>
	<path style="fill:#FFFFFF;" d="M391.604,107.338c-7.581,0-13.722,6.157-13.722,13.718c0-7.561-6.144-13.718-13.718-13.718
		c7.574,0,13.718-6.157,13.718-13.718C377.879,101.181,384.023,107.338,391.604,107.338z"/>
	<path style="fill:#FFFFFF;" d="M465.844,289.878c-3.501,0-6.339,2.844-6.339,6.339c0-3.495-2.837-6.339-6.339-6.339
		c3.501,0,6.339-2.844,6.339-6.339C459.505,287.034,462.346,289.878,465.844,289.878z"/>
	<path style="fill:#FFFFFF;" d="M72.872,256c-11.71,0-21.207,9.517-21.207,21.2c0-11.684-9.497-21.2-21.193-21.2
		c11.697,0,21.193-9.523,21.193-21.203C51.666,246.477,61.163,256,72.872,256z"/>
</g>
<g>
	<path style="fill:#ADECF7;" d="M37.911,104.164c-4.558,0-8.261,3.7-8.261,8.251c0-4.552-3.693-8.251-8.255-8.251
		c4.562,0,8.255-3.706,8.255-8.258C29.65,100.458,33.353,104.164,37.911,104.164z"/>
	<path style="fill:#ADECF7;" d="M512,390.124c-8.113,0-14.696,6.58-14.696,14.68c0-8.1-6.567-14.68-14.686-14.68
		c8.119,0,14.686-6.6,14.686-14.696C497.304,383.521,503.887,390.124,512,390.124z"/>
</g>
<g>
</g>
<g>
</g>
<g>
</g>
<g>
</g>
<g>
</g>
<g>
</g>
<g>
</g>
<g>
</g>
<g>
</g>
<g>
</g>
<g>
</g>
<g>
</g>
<g>
</g>
<g>
</g>
<g>
</g>
</svg>
