<?xml version="1.0" encoding="iso-8859-1"?>
<!-- Generator: Adobe Illustrator 19.0.0, SVG Export Plug-In . SVG Version: 6.00 Build 0)  -->
<svg version="1.1" id="Capa_1" xmlns="http://www.w3.org/2000/svg" xmlns:xlink="http://www.w3.org/1999/xlink" x="0px" y="0px"
	 viewBox="0 0 385.062 385.062" style="enable-background:new 0 0 385.062 385.062;" xml:space="preserve">
<g id="XMLID_474_">
	<polygon id="XMLID_42_" style="fill:#FFDA44;" points="133.798,309.286 192.531,248.946 251.264,309.286 192.531,385.062 	"/>
	<polygon id="XMLID_475_" style="fill:#FFCD00;" points="192.531,248.946 192.531,385.062 251.264,309.286 	"/>
	<g id="XMLID_478_">
		<polygon id="XMLID_477_" style="fill:#FFE477;" points="304.123,325.512 210.694,259.826 210.694,121.074 304.123,225.662 		"/>
	</g>
	<g id="XMLID_35_">
		<polygon id="XMLID_481_" style="fill:#FFEB99;" points="80.939,325.512 174.368,259.826 174.368,121.074 80.939,225.662 		"/>
	</g>
	<path id="XMLID_479_" style="fill:#00D7DF;" d="M251.379,282.514c0,0,25.755-135.131,25.755-156.641
		C277.134,62.403,192.549,0,192.549,0s-84.62,62.4-84.62,125.87c0,21.51,25.754,156.643,25.754,156.643
		C177.576,282.514,203.402,282.514,251.379,282.514z"/>
	<path id="XMLID_482_" style="fill:#00969B;" d="M192.549,0c0,0-0.014,0.01-0.018,0.013v282.501c17.463,0,35.54,0,58.847,0
		c0,0,25.755-135.131,25.755-156.641C277.134,62.403,192.549,0,192.549,0z"/>
	<circle id="XMLID_483_" style="fill:#FFEB99;" cx="192.531" cy="130.738" r="44.637"/>
	<path id="XMLID_484_" style="fill:#FFE477;" d="M192.531,86.102v89.274c24.652,0,44.637-19.985,44.637-44.637
		C237.168,106.086,217.183,86.102,192.531,86.102z"/>
</g>
<g>
</g>
<g>
</g>
<g>
</g>
<g>
</g>
<g>
</g>
<g>
</g>
<g>
</g>
<g>
</g>
<g>
</g>
<g>
</g>
<g>
</g>
<g>
</g>
<g>
</g>
<g>
</g>
<g>
</g>
</svg>
