<?xml version="1.0" encoding="iso-8859-1"?>
<!-- Generator: Adobe Illustrator 18.1.1, SVG Export Plug-In . SVG Version: 6.00 Build 0)  -->
<svg xmlns="http://www.w3.org/2000/svg" xmlns:xlink="http://www.w3.org/1999/xlink" version="1.1" id="Capa_1" x="0px" y="0px" viewBox="0 0 16.264 16.264" style="enable-background:new 0 0 16.264 16.264;" xml:space="preserve" width="512px" height="512px">
<g>
	<g>
		<path d="M12.799,0.595c-1.914,0-3.465,1.551-3.465,3.465s1.551,3.465,3.465,3.465s3.465-1.551,3.465-3.465    S14.713,0.595,12.799,0.595z M14.98,4.636c0,0.115-0.093,0.207-0.206,0.207h-1.163v1.192c0,0.113-0.093,0.206-0.207,0.206h-1.192    c-0.114,0-0.206-0.093-0.206-0.206V4.842h-1.181c-0.114,0-0.206-0.092-0.206-0.207v-1.19c0-0.114,0.092-0.207,0.206-0.207h1.181    V2.086c0-0.114,0.092-0.207,0.206-0.207h1.191c0.114,0,0.207,0.092,0.207,0.207v1.152h1.163c0.113,0,0.206,0.093,0.206,0.207    L14.98,4.636L14.98,4.636z" fill="#FFFFFF"/>
		<path d="M10.185,7.748l-0.001,0.008L9.977,7.548c-1.022-1.022-2.68-1.023-3.702-0.001    C6.264,7.558,6.251,7.571,6.241,7.582C6.228,7.593,6.22,7.603,6.206,7.616c-0.01,0.01-0.268,0.224-0.193,0.573    c0.075,0.348,0.559,0.797,1.266,0.318c0,0,1.199-0.606,1.772-0.033l3.526,3.528l-0.001,0.002c0,0,0.023,0.021,0.069,0.068    l0.002-0.01c0.508,0.51,0.506,1.338-0.003,1.848c-0.008,0.008-0.021,0.023-0.021,0.023s-0.032,0.029-0.047,0.045    c-0.509,0.51-1.339,0.51-1.85,0c0,0-1.76-1.762-3.102-3.104l-1.219,0.643l3.206,3.205c0.042,0.043,0.077,0.078,0.105,0.105    l-0.001,0.002l0.081,0.08l0.002-0.008l0.001,0.002c1.022,1.021,2.68,1.021,3.702,0c0.011-0.012,0.023-0.023,0.034-0.035    c0.012-0.01,0.021-0.021,0.034-0.033c1.021-1.021,1.021-2.68-0.001-3.701L10.185,7.748z" fill="#FFFFFF"/>
		<path d="M8.097,10.127c0.012-0.012,0.021-0.021,0.034-0.033c0.011-0.012,0.268-0.225,0.194-0.575    C8.25,9.17,7.766,8.722,7.058,9.201c0,0-1.199,0.606-1.771,0.033L1.76,5.707l0.002-0.002c0,0-0.024-0.022-0.07-0.068L1.689,5.645    C1.182,5.134,1.184,4.308,1.694,3.798C1.701,3.79,1.715,3.775,1.715,3.775s0.031-0.03,0.047-0.045C2.27,3.221,3.1,3.221,3.61,3.73    c0,0,1.76,1.76,3.104,3.103l1.217-0.642L4.725,2.985C4.682,2.941,4.648,2.907,4.62,2.879l0.001-0.001L4.54,2.798L4.538,2.805    L4.537,2.804c-1.022-1.022-2.68-1.022-3.701-0.001C0.824,2.814,0.811,2.827,0.801,2.838C0.788,2.85,0.778,2.859,0.766,2.872    c-1.022,1.022-1.022,2.679,0.001,3.702l3.386,3.387v-0.01l0.208,0.209c1.022,1.021,2.679,1.021,3.701,0.002    C8.074,10.15,8.087,10.137,8.097,10.127z" fill="#FFFFFF"/>
	</g>
</g>
<g>
</g>
<g>
</g>
<g>
</g>
<g>
</g>
<g>
</g>
<g>
</g>
<g>
</g>
<g>
</g>
<g>
</g>
<g>
</g>
<g>
</g>
<g>
</g>
<g>
</g>
<g>
</g>
<g>
</g>
</svg>
