<?xml version="1.0" encoding="iso-8859-1"?>
<!-- Generator: Adobe Illustrator 19.0.0, SVG Export Plug-In . SVG Version: 6.00 Build 0)  -->
<svg version="1.1" id="Layer_1" xmlns="http://www.w3.org/2000/svg" xmlns:xlink="http://www.w3.org/1999/xlink" x="0px" y="0px"
	 viewBox="0 0 297.001 297.001" style="enable-background:new 0 0 297.001 297.001;" xml:space="preserve">
<g>
	<path style="fill:#F5DB91;" d="M288.514,41.181H145.508l-14.127-28.254c-1.437-2.874-4.375-4.69-7.59-4.69H57.903
		c-4.686,0-8.486,3.799-8.486,8.486V214.39c0,4.686,3.799,8.486,8.486,8.486h230.612c4.686,0,8.486-3.799,8.486-8.486V49.666
		C297,44.98,293.201,41.181,288.514,41.181z"/>
	<path style="fill:#DBBC6E;" d="M288.514,41.181h-95.672v181.694h95.672c4.686,0,8.486-3.799,8.486-8.486V49.666
		C297,44.98,293.201,41.181,288.514,41.181z"/>
	<path style="fill:#F9B65F;" d="M239.097,107.07H96.091L81.965,78.816c-1.437-2.874-4.375-4.69-7.59-4.69H8.486
		C3.799,74.125,0,77.924,0,82.611v197.667c0,4.686,3.799,8.486,8.486,8.486h230.612c4.686,0,8.486-3.799,8.486-8.486V115.555
		C247.583,110.869,243.784,107.07,239.097,107.07z"/>
	<path style="fill:#E29840;" d="M239.097,107.07H123.459v181.694h115.638c4.686,0,8.486-3.799,8.486-8.486V115.555
		C247.583,110.869,243.784,107.07,239.097,107.07z"/>
	<path style="fill:#E04332;" d="M156.736,189.431h-24.459v-24.459c0-4.686-3.799-8.486-8.486-8.486s-8.486,3.799-8.486,8.486v24.459
		H90.847c-4.686,0-8.486,3.799-8.486,8.486s3.799,8.486,8.486,8.486h24.459v24.459c0,4.686,3.799,8.486,8.486,8.486
		c4.687,0,8.486-3.799,8.486-8.486v-24.459h24.459c4.686,0,8.486-3.799,8.486-8.486S161.423,189.431,156.736,189.431z"/>
	<path style="fill:#BF2C21;" d="M156.736,189.431h-24.459v-24.459c0-4.686-3.799-8.486-8.486-8.486
		c-0.112,0-0.221,0.012-0.332,0.017v82.827c0.111,0.004,0.22,0.017,0.332,0.017c4.686,0,8.486-3.799,8.486-8.486v-24.459h24.459
		c4.686,0,8.486-3.799,8.486-8.486S161.423,189.431,156.736,189.431z"/>
</g>
<g>
</g>
<g>
</g>
<g>
</g>
<g>
</g>
<g>
</g>
<g>
</g>
<g>
</g>
<g>
</g>
<g>
</g>
<g>
</g>
<g>
</g>
<g>
</g>
<g>
</g>
<g>
</g>
<g>
</g>
</svg>
