<?xml version='1.0' encoding='iso-8859-1'?>
<svg version="1.1" xmlns="http://www.w3.org/2000/svg" viewBox="0 0 278.419 278.419" xmlns:xlink="http://www.w3.org/1999/xlink" enable-background="new 0 0 278.419 278.419">
  <g>
    <g>
      <path d="m252.317,69.605h-121.808c-5.22,0-8.701-3.48-8.701-8.701v-17.401c0-13.921-12.181-26.102-26.102-26.102h-69.604c-13.921,0-26.102,12.181-26.102,26.102v191.413c0,13.921 12.181,26.102 26.102,26.102h226.216c13.921,0 26.102-12.181 26.102-26.102v-139.209c-0.001-13.921-12.182-26.102-26.103-26.102zm8.701,165.311c0,5.22-3.48,8.701-8.701,8.701h-226.215c-5.22,0-8.701-3.48-8.701-8.701v-191.413c0-5.22 3.48-8.701 8.701-8.701h69.605c5.22,0 8.701,3.48 8.701,8.701v17.401c0,13.921 12.181,26.102 26.102,26.102h121.808c5.22,0 8.701,3.48 8.701,8.701v139.209z"/>
      <path d="m174.012,160.091h-26.102v-26.101c0-5.22-3.48-8.701-8.701-8.701-5.22,0-8.701,3.48-8.701,8.701v26.102h-26.102c-5.22,0-8.701,3.48-8.701,8.701s3.48,8.701 8.701,8.701h26.102v26.102c0,5.22 3.48,8.701 8.701,8.701 5.22,0 8.701-3.48 8.701-8.701v-26.102h26.102c5.22,0 8.701-3.48 8.701-8.701s-3.481-8.702-8.701-8.702z"/>
    </g>
  </g>
</svg>
