<?xml version="1.0" encoding="iso-8859-1"?>
<!-- Generator: Adobe Illustrator 19.0.0, SVG Export Plug-In . SVG Version: 6.00 Build 0)  -->
<svg version="1.1" id="Layer_1" xmlns="http://www.w3.org/2000/svg" xmlns:xlink="http://www.w3.org/1999/xlink" x="0px" y="0px"
	 viewBox="0 0 512.001 512.001" style="enable-background:new 0 0 512.001 512.001;" xml:space="preserve">
<path style="fill:#C7E9F4;" d="M291.916,277.429L291.916,277.429l-57.344-57.346c-25.693-25.693-25.693-67.501,0-93.194
	L342.191,19.27c25.692-25.692,67.499-25.691,93.194-0.001l57.346,57.347c25.693,25.693,25.693,67.501-0.001,93.194L385.11,277.429
	C359.417,303.121,317.611,303.122,291.916,277.429z M320.501,248.843c9.933,9.93,26.092,9.93,36.024,0l107.619-107.619
	c9.956-9.956,9.956-26.068,0-36.024L406.8,47.855c-9.931-9.93-26.091-9.933-36.024,0L263.157,155.474
	c-9.956,9.956-9.956,26.068,0,36.024L320.501,248.843L320.501,248.843z"/>
<path style="fill:#80D0E1;" d="M492.731,76.615l-28.673-28.673l-28.585,28.585l28.671,28.673c9.956,9.956,9.956,26.069,0,36.024
	L356.525,248.843c-9.931,9.93-26.091,9.93-36.024,0h0.001l-28.673-28.673l-28.585,28.585l28.673,28.673
	c25.695,25.693,67.501,25.692,93.194,0l107.619-107.619C518.424,144.116,518.424,102.309,492.731,76.615z"/>
<path style="fill:#C7E9F4;" d="M76.616,492.732c0-0.001,0-0.001,0-0.001L19.27,435.385c-25.693-25.693-25.693-67.501,0-93.194
	l107.619-107.619c25.693-25.692,67.499-25.692,93.194,0l57.344,57.346c25.693,25.693,25.693,67.501,0,93.194L169.808,492.73
	C144.117,518.422,102.31,518.422,76.616,492.732z M105.199,464.144c9.933,9.933,26.094,9.931,36.025,0.001l107.619-107.619
	c9.956-9.956,9.956-26.068,0-36.024l-57.346-57.346c-9.93-9.931-26.091-9.931-36.022,0L47.857,370.776
	c-9.956,9.956-9.956,26.068,0,36.024L105.199,464.144L105.199,464.144z"/>
<g>
	<polygon style="fill:#80D0E1;" points="105.201,464.145 105.199,464.144 105.199,464.144 	"/>
	<path style="fill:#80D0E1;" d="M277.429,291.916l-28.671-28.673l-28.585,28.585l28.673,28.673c9.956,9.956,9.956,26.069,0,36.024
		L141.226,464.144c-9.931,9.93-26.092,9.931-36.025-0.001l0.001,0.001l-0.001-0.001l0,0l-28.671-28.671l-28.585,28.585
		l28.671,28.671c0,0,0,0,0.001,0.001c25.695,25.691,67.502,25.691,93.194-0.001L277.43,385.108
		C303.122,359.416,303.122,317.611,277.429,291.916z"/>
	<path style="fill:#80D0E1;" d="M198.6,333.614c-5.173,0-10.346-1.974-14.292-5.921c-7.894-7.892-7.894-20.691,0-28.585l114.8-114.8
		c7.892-7.892,20.691-7.892,28.585,0c7.894,7.894,7.894,20.693,0,28.585l-114.8,114.8C208.946,331.64,203.773,333.614,198.6,333.614
		z"/>
</g>
<path style="fill:#51B3DA;" d="M327.693,184.307L184.308,327.693c3.947,3.947,9.12,5.92,14.292,5.92
	c5.173,0,10.346-1.974,14.292-5.92l114.8-114.8C335.587,204.999,335.587,192.2,327.693,184.307z"/>
<g>
</g>
<g>
</g>
<g>
</g>
<g>
</g>
<g>
</g>
<g>
</g>
<g>
</g>
<g>
</g>
<g>
</g>
<g>
</g>
<g>
</g>
<g>
</g>
<g>
</g>
<g>
</g>
<g>
</g>
</svg>
