<?xml version="1.0" encoding="iso-8859-1"?>
<!-- Generator: Adobe Illustrator 16.0.0, SVG Export Plug-In . SVG Version: 6.00 Build 0)  -->
<!DOCTYPE svg PUBLIC "-//W3C//DTD SVG 1.1//EN" "http://www.w3.org/Graphics/SVG/1.1/DTD/svg11.dtd">
<svg xmlns="http://www.w3.org/2000/svg" xmlns:xlink="http://www.w3.org/1999/xlink" version="1.1" id="Capa_1" x="0px" y="0px" width="512px" height="512px" viewBox="0 0 446.615 446.616" style="enable-background:new 0 0 446.615 446.616;" xml:space="preserve">
<g>
	<g>
		<g>
			<path d="M191.852,260.427l-60.628,60.62c-22.054,22.048-59.52,20.479-83.508-3.505c-23.991-23.998-25.569-61.446-3.51-83.517     l68.694-68.69c22.057-22.057,59.52-20.479,83.511,3.505c10.214,10.212,16.321,22.859,18.313,35.727     c8.889-0.929,17.271-4.569,23.795-11.089l2.53-2.53c-4.052-15.396-12.125-30.14-24.37-42.377     c-35.171-35.171-90.824-36.744-124.056-3.505l-68.69,68.69c-33.239,33.229-31.662,88.889,3.507,124.061     c35.168,35.166,90.821,36.739,124.06,3.505l68.69-68.69c3.89-3.888,7.269-8.116,10.207-12.563     C217.798,262.658,204.711,262.714,191.852,260.427z" fill="#FFDA44"/>
			<path d="M210.06,27.633l-68.7,68.695c-3.899,3.901-7.273,8.13-10.218,12.578c12.603-2.581,25.694-2.66,38.545-0.359     l60.642-60.639c22.052-22.057,59.52-20.479,83.508,3.509c23.994,23.994,25.571,61.452,3.51,83.508l-68.689,68.695     c-22.057,22.057-59.515,20.483-83.511-3.51c-10.214-10.212-16.321-22.869-18.314-35.731c-8.888,0.92-17.275,4.583-23.795,11.094     l-2.527,2.53c4.051,15.401,12.123,30.14,24.367,42.381c35.171,35.172,90.824,36.739,124.059,3.51l68.685-68.69     c33.239-33.239,31.662-88.889-3.505-124.056C298.954-4.023,243.294-5.605,210.06,27.633z" fill="#FFDA44"/>
		</g>
		<path d="M351.038,251.742c-52.794,0-95.581,42.797-95.581,95.582c0,52.789,42.787,95.591,95.581,95.591    c52.79,0,95.577-42.802,95.577-95.591C446.615,294.539,403.828,251.742,351.038,251.742z M407.192,367.018h-35.348v35.503    c0,11.164-9.055,20.199-20.214,20.199s-20.208-9.035-20.208-20.199v-35.503h-35.358c-11.149,0-20.198-9.054-20.198-20.208    s9.049-20.208,20.198-20.208h35.358v-35.214c0-11.154,9.049-20.203,20.208-20.203s20.214,9.049,20.214,20.203v35.214h35.348    c11.159,0,20.213,9.054,20.213,20.208C427.401,357.974,418.352,367.018,407.192,367.018z" fill="#FFDA44"/>
	</g>
</g>
<g>
</g>
<g>
</g>
<g>
</g>
<g>
</g>
<g>
</g>
<g>
</g>
<g>
</g>
<g>
</g>
<g>
</g>
<g>
</g>
<g>
</g>
<g>
</g>
<g>
</g>
<g>
</g>
<g>
</g>
</svg>
