<?xml version="1.0" encoding="iso-8859-1"?>
<!-- Generator: Adobe Illustrator 19.0.0, SVG Export Plug-In . SVG Version: 6.00 Build 0)  -->
<svg version="1.1" id="Layer_1" xmlns="http://www.w3.org/2000/svg" xmlns:xlink="http://www.w3.org/1999/xlink" x="0px" y="0px"
	 viewBox="0 0 512 512" style="enable-background:new 0 0 512 512;" xml:space="preserve">
<path style="fill:#3F4A5A;" d="M183.885,486.121c10.588-10.593,24.476-15.887,38.356-15.887h108.488
	c13.898,0,27.761,5.294,38.356,15.887c7.391,7.393,12.155,16.392,14.382,25.879c17.933-25.295,28.639-57.073,28.639-91.64
	c0-82.394-60.718-149.184-135.611-149.184c-74.898,0-135.611,66.793-135.611,149.184c0,34.552,10.701,66.335,28.628,91.625
	C171.748,502.513,176.499,493.512,183.885,486.121z"/>
<path style="fill:#EFEFEF;" d="M367.089,271.834c0,125.094-40.573,226.496-90.593,226.496c-50.035,0-90.596-101.399-90.596-226.496
	c0-125.105,40.561-226.496,90.596-226.496C326.515,45.335,367.089,146.726,367.089,271.834z"/>
<g>
	<path style="fill:#3F4A5A;" d="M232.788,470.234c12.961,17.879,27.858,28.096,43.707,28.096c15.859,0,30.746-10.214,43.704-28.096
		H232.788z"/>
	<path style="fill:#3F4A5A;" d="M276.495,512c5.453-27.599,8.346-56.128,8.346-85.335c0-29.21-2.893-57.738-8.346-85.338
		c-5.463,27.599-8.351,56.128-8.351,85.338C268.145,455.872,271.032,484.401,276.495,512z"/>
</g>
<path style="fill:#F67656;" d="M213.476,109.184h126.036c-16.312-39.496-38.525-63.846-63.017-63.846
	C251.988,45.335,229.788,69.688,213.476,109.184z"/>
<path style="fill:#3F4A5A;" d="M316.36,197.673c0,22.016-17.856,39.854-39.864,39.854c-22.011,0-39.867-17.841-39.867-39.854
	c0-22.016,17.856-39.864,39.867-39.864C298.506,157.809,316.36,175.657,316.36,197.673z"/>
<path style="fill:#FFFFFF;" d="M301.86,197.673c0,14.008-11.372,25.367-25.372,25.367c-14.013,0-25.359-11.361-25.359-25.367
	c0-14.008,11.348-25.359,25.359-25.359C290.488,172.314,301.86,183.665,301.86,197.673z"/>
<path style="fill:#3F4A5A;" d="M278.252,1.446C278.1,0.625,277.368,0,276.488,0c-0.876,0-1.6,0.625-1.772,1.446l-9.091,45.512
	h21.742L278.252,1.446z"/>
<g>
	<circle style="fill:#D9D8D7;" cx="454.272" cy="42.312" r="14.257"/>
	<path style="fill:#D9D8D7;" d="M49.999,88.983c0,9.416-7.644,17.065-17.068,17.065c-9.421,0-17.065-7.647-17.065-17.065
		c0-9.423,7.644-17.07,17.065-17.07C42.355,71.913,49.999,79.56,49.999,88.983z"/>
	<circle style="fill:#D9D8D7;" cx="137.871" cy="49.446" r="8.389"/>
	<circle style="fill:#D9D8D7;" cx="129.482" cy="155.633" r="11.379"/>
	<circle style="fill:#D9D8D7;" cx="84.022" cy="336.435" r="5.691"/>
	<circle style="fill:#D9D8D7;" cx="484.762" cy="88.983" r="4.268"/>
	<circle style="fill:#D9D8D7;" cx="468.531" cy="344.806" r="8.389"/>
	<circle style="fill:#D9D8D7;" cx="490.445" cy="438.758" r="5.688"/>
</g>
<g>
</g>
<g>
</g>
<g>
</g>
<g>
</g>
<g>
</g>
<g>
</g>
<g>
</g>
<g>
</g>
<g>
</g>
<g>
</g>
<g>
</g>
<g>
</g>
<g>
</g>
<g>
</g>
<g>
</g>
</svg>
