<?xml version="1.0" encoding="iso-8859-1"?>
<!-- Generator: Adobe Illustrator 19.0.0, SVG Export Plug-In . SVG Version: 6.00 Build 0)  -->
<svg version="1.1" id="Layer_1" xmlns="http://www.w3.org/2000/svg" xmlns:xlink="http://www.w3.org/1999/xlink" x="0px" y="0px"
	 viewBox="0 0 512.003 512.003" style="enable-background:new 0 0 512.003 512.003;" xml:space="preserve">
<path style="fill:#E6E5E5;" d="M439.014,460.444c0.799-3.681,1.254-7.503,1.254-11.438c0-29.491-23.923-53.399-53.404-53.399
	c-12.385,0-23.764,4.26-32.829,11.351c-2.813-8.417-10.747-14.482-20.096-14.482c-6.72,0-12.114,3.53-16.522,7.939
	c-5.896,5.901-17.554,0.515-19.402-0.701c-8.517-5.571-22.71-16.712-22.71-64.952l-0.064-9.416c0-5.243,2.214-7.841,5.169-8.361
	c3.41-0.604,6.157-3.136,6.157-6.646c0-0.015-0.008-0.028-0.008-0.036c6.397-0.228,11.52-5.443,11.52-11.894
	c0-6.587-5.332-11.93-11.924-11.93c-3.538,0-6.684,1.572-8.865,4.022c-0.622-1.659-2.222-2.852-4.101-2.852
	c-1.669,0-3.126,0.957-3.855,2.348c-1.139-2.081-3.325-3.517-5.865-3.517c-2.586,0-4.81,1.498-5.924,3.645
	c-1.196-0.548-2.534-0.876-3.95-0.876c-5.268,0-9.536,4.268-9.536,9.544c0,5.268,4.268,9.539,9.536,9.539
	c0.072,0,0.128-0.018,0.192-0.02c-0.072,0.307-0.192,0.599-0.192,0.932c0,1.861,1.275,3.302,2.916,3.948
	c1.654,0.658,2.737,2.44,2.737,4.372v32.942c0,18.826-2.363,31.882-8.707,40.904c-2.227,3.159-5.284,5.832-9.426,5.832
	c-3.259,0-6.228-1.48-8.141-3.809c0.033,0.049,0.046,0.092,0.074,0.138c-4.905-8.008-13.722-13.366-23.79-13.366
	c-9.247,0-17.413,4.5-22.495,11.423c-9.61-6.382-21.12-10.12-33.523-10.12c-33.516,0-60.69,27.174-60.69,60.698
	c0,33.513,27.174,60.687,60.69,60.687c13.399,0,25.736-4.393,35.779-11.738c1.042,11.686,10.852,20.844,22.804,20.844
	c12.664,0,22.915-10.266,22.915-22.917c0-1.316-0.128-2.601-0.346-3.863c4.705,2.258,9.953,3.561,15.519,3.561
	c9.812,0,18.675-3.93,25.165-10.294c-0.003,0.184-0.051,0.358-0.051,0.55c0,7.747,6.282,14.024,14.026,14.024
	c3.722,0,7.071-1.467,9.574-3.825c4.301,13.21,16.701,22.769,31.342,22.769c12.608,0,23.544-7.081,29.087-17.469
	c8.108,4.961,17.608,7.875,27.809,7.875c13.617,0,26.004-5.133,35.433-13.525c2.532,1.58,5.514,2.537,8.709,2.537
	c9.157,0,16.573-7.411,16.573-16.553C447.58,468.634,444.086,463.268,439.014,460.444z"/>
<path style="fill:#F2F2F2;" d="M352.397,214.876c-36.628-30.346-61.962-77.235-61.962-128.525v174.318H366.3v-16.015
	C366.3,232.699,360.947,221.949,352.397,214.876z"/>
<g>
	<path style="fill:#353F49;" d="M352.397,214.876c-36.628-30.346-61.962-77.235-61.962-128.525v75.18h8.911
		c11.164,22.828,27.269,43.551,47.378,60.193c6.789,5.627,10.68,13.98,10.68,22.93v16.015h8.896v-16.015
		C366.3,232.699,360.947,221.949,352.397,214.876z"/>
	<rect x="333.059" y="247.726" style="fill:#353F49;" width="24.812" height="2.486"/>
</g>
<path style="fill:#F2F2F2;" d="M187.745,214.876c36.636-30.346,61.96-77.235,61.96-128.525v174.318h-75.86v-16.015
	C173.844,232.699,179.208,221.949,187.745,214.876z"/>
<g>
	<path style="fill:#353F49;" d="M187.745,214.876c36.636-30.346,61.96-77.235,61.96-128.525v75.18h-8.906
		c-11.162,22.828-27.282,43.551-47.38,60.193c-6.779,5.627-10.678,13.98-10.678,22.93v16.015h-8.899v-16.015
		C173.844,232.699,179.208,221.949,187.745,214.876z"/>
	<rect x="182.3" y="247.726" style="fill:#353F49;" width="24.812" height="2.486"/>
</g>
<path style="fill:#F2F2F2;" d="M298.98,55.483l-28.908,7.283l-28.908-7.283c0.189-0.696,0.448-1.349,0.794-1.969
	c0.113-0.202,0.207-0.402,0.33-0.602l27.784-48.118l27.789,48.118c0.125,0.2,0.21,0.399,0.338,0.602
	C298.527,54.134,298.801,54.787,298.98,55.483z"/>
<polygon style="fill:#D9D8D7;" points="270.072,4.795 279.698,56.502 279.821,58.089 297.864,52.913 "/>
<polygon style="fill:#474F59;" points="270.072,4.795 260.088,22.095 280.061,22.095 "/>
<polygon style="fill:#353F49;" points="270.072,4.795 273.298,22.095 280.061,22.095 "/>
<rect x="240.796" y="58.089" style="fill:#FF916E;" width="19.512" height="192.128"/>
<rect x="260.303" y="58.089" style="fill:#F77B55;" width="19.507" height="192.128"/>
<rect x="279.811" y="58.089" style="fill:#EE643C;" width="19.528" height="192.128"/>
<circle style="fill:#FF916E;" cx="250.55" cy="58.089" r="9.756"/>
<path style="fill:#F77B55;" d="M279.834,58.089c0,5.386-4.378,9.754-9.761,9.754c-5.386,0-9.761-4.367-9.761-9.754
	c0-5.389,4.375-9.751,9.761-9.751C275.456,48.338,279.834,52.7,279.834,58.089z"/>
<path style="fill:#EE643C;" d="M299.348,58.089c0,5.386-4.385,9.754-9.761,9.754c-5.394,0-9.756-4.367-9.756-9.754
	c0-5.389,4.36-9.751,9.756-9.751C294.963,48.338,299.348,52.7,299.348,58.089z"/>
<rect x="239.055" y="250.209" style="fill:#F2F2F2;" width="62.029" height="20.928"/>
<rect x="279.811" y="250.209" style="fill:#D9D8D7;" width="21.258" height="20.928"/>
<path style="fill:#474F59;" d="M299.348,280.366c0,2.998-1.157,5.99-3.443,8.279c-2.289,2.286-5.284,3.428-8.282,3.428h-35.103
	c-2.993,0-6.003-1.142-8.274-3.428c-2.289-2.291-3.446-5.281-3.446-8.279v-9.219h58.547V280.366z"/>
<path style="fill:#353F49;" d="M279.821,271.148v9.219c0,2.998-1.142,5.99-3.43,8.279c-2.289,2.286-5.276,3.428-8.274,3.428h19.507
	c2.998,0,5.996-1.142,8.282-3.428c2.286-2.291,3.443-5.281,3.443-8.279v-9.219H279.821z"/>
<rect x="267.753" y="224.942" style="fill:#474F59;" width="4.618" height="46.208"/>
<g>
	<circle style="fill:#E6E5E5;" cx="377.833" cy="309.704" r="19.261"/>
	<circle style="fill:#E6E5E5;" cx="161.462" cy="150.556" r="12.383"/>
	<circle style="fill:#E6E5E5;" cx="157.34" cy="288.712" r="8.256"/>
	<circle style="fill:#E6E5E5;" cx="426.191" cy="5.824" r="5.824"/>
	<path style="fill:#E6E5E5;" d="M126.036,31.442c0,8.056-6.52,14.589-14.574,14.589c-8.036,0-14.582-6.531-14.582-14.589
		c0-8.054,6.546-14.587,14.582-14.587C119.519,16.855,126.036,23.386,126.036,31.442z"/>
	<path style="fill:#E6E5E5;" d="M500.79,189.476c-12.088,0-21.875,9.815-21.875,21.868c0-12.052-9.772-21.868-21.86-21.868
		c12.088,0,21.86-9.812,21.86-21.862C478.915,179.663,488.701,189.476,500.79,189.476z"/>
	<path style="fill:#E6E5E5;" d="M419.691,103.16c-8.366,0-15.14,6.794-15.14,15.137c0-8.343-6.779-15.137-15.137-15.137
		c8.358,0,15.137-6.794,15.137-15.137C404.552,96.366,411.328,103.16,419.691,103.16z"/>
	<path style="fill:#E6E5E5;" d="M457.055,281.608c-3.863,0-6.994,3.141-6.994,6.994c0-3.855-3.133-6.994-6.991-6.994
		c3.86,0,6.991-3.141,6.991-6.994C450.061,278.467,453.192,281.608,457.055,281.608z"/>
	<path style="fill:#E6E5E5;" d="M102.029,315.466c-12.92,0-23.398,10.501-23.398,23.391c0-12.89-10.478-23.391-23.386-23.391
		c12.908,0,23.386-10.506,23.386-23.396C78.633,304.96,89.111,315.466,102.029,315.466z"/>
	<path style="fill:#E6E5E5;" d="M29.437,99.658c-5.028,0-9.116,4.083-9.116,9.106c0-5.023-4.076-9.106-9.108-9.106
		c5.033,0,9.108-4.088,9.108-9.111C20.324,95.567,24.41,99.658,29.437,99.658z"/>
	<path style="fill:#E6E5E5;" d="M489.475,338.03c-8.95,0-16.215,7.26-16.215,16.197c0-8.937-7.247-16.197-16.205-16.197
		c8.957,0,16.205-7.283,16.205-16.218C473.259,330.747,480.525,338.03,489.475,338.03z"/>
</g>
<g>
</g>
<g>
</g>
<g>
</g>
<g>
</g>
<g>
</g>
<g>
</g>
<g>
</g>
<g>
</g>
<g>
</g>
<g>
</g>
<g>
</g>
<g>
</g>
<g>
</g>
<g>
</g>
<g>
</g>
</svg>
