<?xml version="1.0" encoding="iso-8859-1"?>
<!-- Generator: Adobe Illustrator 19.0.0, SVG Export Plug-In . SVG Version: 6.00 Build 0)  -->
<svg version="1.1" id="Layer_1" xmlns="http://www.w3.org/2000/svg" xmlns:xlink="http://www.w3.org/1999/xlink" x="0px" y="0px"
	 viewBox="0 0 512.001 512.001" style="enable-background:new 0 0 512.001 512.001;" xml:space="preserve">
<path style="fill:#FFE164;" d="M225.105,379.568c0,26.074,3.571,82.227,24.391,128.26c2.517,5.563,10.494,5.563,13.009,0
	c20.82-46.034,24.391-102.187,24.391-128.26H225.105z"/>
<path style="fill:#FFFFFF;" d="M238.346,379.568c0,12.505,2.452,40.827,17.655,61.792c15.203-20.965,17.655-49.286,17.655-61.792
	H238.346z"/>
<path style="fill:#959CB3;" d="M299.875,377.425l-10.499-41.995h-66.75l-10.499,41.995c-0.66,2.638-0.065,5.431,1.608,7.573
	s4.237,3.396,6.957,3.396h70.619c2.72,0,5.284-1.255,6.957-3.396C299.94,382.856,300.533,380.063,299.875,377.425z"/>
<path style="fill:#707487;" d="M238.609,377.425l10.499-41.995h-26.482l-10.499,41.995c-0.66,2.638-0.065,5.431,1.608,7.573
	c1.673,2.142,4.237,3.396,6.957,3.396h26.482c-2.72,0-5.284-1.255-6.957-3.396S237.95,380.063,238.609,377.425z"/>
<path style="fill:#FF6464;" d="M291.31,220.675h0.085c0-2.435,0.915-4.853,2.877-6.598c3.656-3.233,9.223-2.914,12.465,0.733
	l57.24,64.396c10.054,11.311,15.608,25.918,15.608,41.052v94.62c0,4.875-3.952,8.827-8.827,8.827s-8.827-3.952-8.827-8.827v-23.123
	l-68.39-76.939c-1.494-1.683-2.143-3.781-2.144-5.866h-0.085v-88.274H291.31z"/>
<path style="fill:#707487;" d="M370.756,326.604L370.756,326.604c4.875,0,8.827,3.952,8.827,8.827v79.446
	c0,4.875-3.952,8.827-8.827,8.827l0,0c-4.875,0-8.827-3.952-8.827-8.827v-79.446C361.929,330.556,365.881,326.604,370.756,326.604z"
	/>
<path style="fill:#FF6464;" d="M220.691,220.675h-0.085c0-2.435-0.915-4.853-2.877-6.598c-3.656-3.233-9.223-2.914-12.465,0.733
	l-57.24,64.396c-10.054,11.311-15.608,25.918-15.608,41.052v94.62c0,4.875,3.952,8.827,8.827,8.827s8.827-3.952,8.827-8.827v-23.123
	l68.39-76.939c1.494-1.683,2.143-3.781,2.144-5.866h0.085v-88.274H220.691z"/>
<path style="fill:#E4EAF6;" d="M248.641,4.316l-41.107,73.454c-2.948,5.269-4.496,11.206-4.496,17.244v240.418
	c0,9.751,7.904,17.655,17.655,17.655h70.619c9.751,0,17.655-7.904,17.655-17.655V95.009c0-6.038-1.548-11.975-4.498-17.244
	L263.361,4.316C260.14-1.439,251.86-1.439,248.641,4.316z"/>
<path style="fill:#C7CFE2;" d="M238.346,335.431V95.014c0-6.038,0.644-11.975,1.874-17.243l17.127-73.454
	c0.321-1.474,0.898-2.664,1.581-3.728c-3.669-1.349-8.118-0.15-10.288,3.728l-41.107,73.452c-2.948,5.269-4.496,11.205-4.496,17.243
	V335.43c0,9.75,7.905,17.655,17.655,17.655h25.011C241.639,353.086,238.346,345.181,238.346,335.431z"/>
<circle style="fill:#5B5D6E;" cx="256.005" cy="176.536" r="26.482"/>
<rect x="203.041" y="105.918" style="fill:#C7CFE2;" width="105.928" height="17.655"/>
<path style="fill:#707487;" d="M141.245,326.604L141.245,326.604c-4.875,0-8.827,3.952-8.827,8.827v79.446
	c0,4.875,3.952,8.827,8.827,8.827l0,0c4.875,0,8.827-3.952,8.827-8.827v-79.446C150.072,330.556,146.12,326.604,141.245,326.604z"/>
<path style="fill:#FF6464;" d="M263.361,4.316c-3.22-5.753-11.501-5.753-14.721,0l-41.108,73.454
	c-2.948,5.269-4.496,11.205-4.496,17.243v10.906h105.928V95.008c0-6.038-1.548-11.975-4.498-17.244L263.361,4.316z"/>
<g>
	<polygon style="fill:#D2555A;" points="185.382,352.031 203.036,332.169 203.036,217.315 185.382,237.177 	"/>
	<polygon style="fill:#D2555A;" points="326.619,352.031 308.965,332.169 308.965,217.315 326.619,237.177 	"/>
</g>
<rect x="203.041" y="105.918" style="fill:#AFB9D2;" width="35.309" height="17.655"/>
<path style="fill:#D2555A;" d="M238.346,95.014c0-6.038,0.644-11.975,1.874-17.243l17.127-73.454
	c0.321-1.474,0.898-2.664,1.581-3.728c-1.788-0.658-3.755-0.686-5.559-0.119c-0.135,0.044-0.262,0.108-0.393,0.158
	c-0.689,0.256-1.334,0.626-1.944,1.069c-0.19,0.14-0.386,0.269-0.566,0.428c-0.694,0.607-1.333,1.31-1.826,2.192l-41.107,73.452
	c-2.948,5.269-4.496,11.205-4.496,17.243v10.906h35.309V95.014z"/>
<g>
	<circle style="fill:#C7CFE2;" cx="256.005" cy="229.501" r="8.827"/>
	<path style="fill:#C7CFE2;" d="M291.31,317.776v-8.827c0-4.875-3.952-8.827-8.827-8.827h-52.964c-4.875,0-8.827,3.952-8.827,8.827
		v8.827h-17.655v17.655c0,9.75,7.905,17.655,17.655,17.655h70.619c9.75,0,17.655-7.905,17.655-17.655v-17.655H291.31z"/>
</g>
<path style="fill:#AFB9D2;" d="M238.346,335.431v-8.827v-8.827v-17.655h-8.827c-4.875,0-8.827,3.952-8.827,8.827v8.827h-17.655
	v17.655c0,9.75,7.905,17.655,17.655,17.655h25.011C241.639,353.086,238.346,345.181,238.346,335.431z"/>
<g>
</g>
<g>
</g>
<g>
</g>
<g>
</g>
<g>
</g>
<g>
</g>
<g>
</g>
<g>
</g>
<g>
</g>
<g>
</g>
<g>
</g>
<g>
</g>
<g>
</g>
<g>
</g>
<g>
</g>
</svg>
